<svg width="214" height="214" viewBox="0 0 214 214" fill="none" xmlns="http://www.w3.org/2000/svg">
<g filter="url(#filter0_di_380_20)">
<rect x="58" y="24" width="90" height="90" rx="25" fill="#644ED3"/>
<rect x="58" y="24" width="90" height="90" rx="25" fill="url(#paint0_radial_380_20)" fill-opacity="0.7"/>
</g>
<path d="M74.084 99.1973H71.9043L71.8926 98.0605H73.7617C74.082 98.0605 74.3496 98.0156 74.5645 97.9258C74.7793 97.8359 74.9414 97.7051 75.0508 97.5332C75.1641 97.3613 75.2207 97.1523 75.2207 96.9062C75.2207 96.6328 75.168 96.4102 75.0625 96.2383C74.9609 96.0664 74.8008 95.9414 74.582 95.8633C74.3633 95.7812 74.0859 95.7402 73.75 95.7402H72.4258V103H70.8145V94.4688H73.75C74.2344 94.4688 74.666 94.5156 75.0449 94.6094C75.4277 94.6992 75.752 94.8398 76.0176 95.0312C76.2832 95.2227 76.4844 95.4629 76.6211 95.752C76.7617 96.041 76.832 96.3848 76.832 96.7832C76.832 97.1348 76.75 97.459 76.5859 97.7559C76.4258 98.0488 76.1777 98.2871 75.8418 98.4707C75.5098 98.6543 75.0879 98.7598 74.5762 98.7871L74.084 99.1973ZM74.0137 103H71.4297L72.1035 101.734H74.0137C74.334 101.734 74.5977 101.682 74.8047 101.576C75.0156 101.471 75.1719 101.326 75.2734 101.143C75.3789 100.955 75.4316 100.74 75.4316 100.498C75.4316 100.232 75.3848 100.002 75.291 99.8066C75.2012 99.6113 75.0566 99.4609 74.8574 99.3555C74.6621 99.25 74.4043 99.1973 74.084 99.1973H72.4082L72.4199 98.0605H74.5527L74.9219 98.5C75.4141 98.5039 75.8145 98.6016 76.123 98.793C76.4355 98.9844 76.666 99.2305 76.8145 99.5312C76.9629 99.832 77.0371 100.156 77.0371 100.504C77.0371 101.051 76.918 101.51 76.6797 101.881C76.4453 102.252 76.1016 102.531 75.6484 102.719C75.1992 102.906 74.6543 103 74.0137 103ZM85.3398 98.5176V98.957C85.3398 99.6016 85.2539 100.182 85.082 100.697C84.9102 101.209 84.666 101.645 84.3496 102.004C84.0332 102.363 83.6562 102.639 83.2188 102.83C82.7812 103.021 82.2949 103.117 81.7598 103.117C81.2324 103.117 80.748 103.021 80.3066 102.83C79.8691 102.639 79.4902 102.363 79.1699 102.004C78.8496 101.645 78.6016 101.209 78.4258 100.697C78.25 100.182 78.1621 99.6016 78.1621 98.957V98.5176C78.1621 97.8691 78.25 97.2891 78.4258 96.7773C78.6016 96.2656 78.8477 95.8301 79.1641 95.4707C79.4805 95.1074 79.8574 94.8301 80.2949 94.6387C80.7363 94.4473 81.2207 94.3516 81.748 94.3516C82.2832 94.3516 82.7695 94.4473 83.207 94.6387C83.6445 94.8301 84.0215 95.1074 84.3379 95.4707C84.6582 95.8301 84.9043 96.2656 85.0762 96.7773C85.252 97.2891 85.3398 97.8691 85.3398 98.5176ZM83.7109 98.957V98.5059C83.7109 98.041 83.668 97.6328 83.582 97.2812C83.4961 96.9258 83.3691 96.627 83.2012 96.3848C83.0332 96.1426 82.8262 95.9609 82.5801 95.8398C82.334 95.7148 82.0566 95.6523 81.748 95.6523C81.4355 95.6523 81.1582 95.7148 80.916 95.8398C80.6777 95.9609 80.4746 96.1426 80.3066 96.3848C80.1387 96.627 80.0098 96.9258 79.9199 97.2812C79.834 97.6328 79.791 98.041 79.791 98.5059V98.957C79.791 99.418 79.834 99.8262 79.9199 100.182C80.0098 100.537 80.1387 100.838 80.3066 101.084C80.4785 101.326 80.6855 101.51 80.9277 101.635C81.1699 101.76 81.4473 101.822 81.7598 101.822C82.0723 101.822 82.3496 101.76 82.5918 101.635C82.834 101.51 83.0371 101.326 83.2012 101.084C83.3691 100.838 83.4961 100.537 83.582 100.182C83.668 99.8262 83.7109 99.418 83.7109 98.957ZM93.6133 98.5176V98.957C93.6133 99.6016 93.5273 100.182 93.3555 100.697C93.1836 101.209 92.9395 101.645 92.623 102.004C92.3066 102.363 91.9297 102.639 91.4922 102.83C91.0547 103.021 90.5684 103.117 90.0332 103.117C89.5059 103.117 89.0215 103.021 88.5801 102.83C88.1426 102.639 87.7637 102.363 87.4434 102.004C87.123 101.645 86.875 101.209 86.6992 100.697C86.5234 100.182 86.4355 99.6016 86.4355 98.957V98.5176C86.4355 97.8691 86.5234 97.2891 86.6992 96.7773C86.875 96.2656 87.1211 95.8301 87.4375 95.4707C87.7539 95.1074 88.1309 94.8301 88.5684 94.6387C89.0098 94.4473 89.4941 94.3516 90.0215 94.3516C90.5566 94.3516 91.043 94.4473 91.4805 94.6387C91.918 94.8301 92.2949 95.1074 92.6113 95.4707C92.9316 95.8301 93.1777 96.2656 93.3496 96.7773C93.5254 97.2891 93.6133 97.8691 93.6133 98.5176ZM91.9844 98.957V98.5059C91.9844 98.041 91.9414 97.6328 91.8555 97.2812C91.7695 96.9258 91.6426 96.627 91.4746 96.3848C91.3066 96.1426 91.0996 95.9609 90.8535 95.8398C90.6074 95.7148 90.3301 95.6523 90.0215 95.6523C89.709 95.6523 89.4316 95.7148 89.1895 95.8398C88.9512 95.9609 88.748 96.1426 88.5801 96.3848C88.4121 96.627 88.2832 96.9258 88.1934 97.2812C88.1074 97.6328 88.0645 98.041 88.0645 98.5059V98.957C88.0645 99.418 88.1074 99.8262 88.1934 100.182C88.2832 100.537 88.4121 100.838 88.5801 101.084C88.752 101.326 88.959 101.51 89.2012 101.635C89.4434 101.76 89.7207 101.822 90.0332 101.822C90.3457 101.822 90.623 101.76 90.8652 101.635C91.1074 101.51 91.3105 101.326 91.4746 101.084C91.6426 100.838 91.7695 100.537 91.8555 100.182C91.9414 99.8262 91.9844 99.418 91.9844 98.957ZM98.3008 94.4688V103H96.6953V94.4688H98.3008ZM100.949 94.4688V95.7402H94.0762V94.4688H100.949ZM106.393 100.785C106.393 100.621 106.367 100.475 106.316 100.346C106.27 100.213 106.182 100.094 106.053 99.9883C105.928 99.8789 105.75 99.7734 105.52 99.6719C105.293 99.5664 105 99.457 104.641 99.3438C104.242 99.2188 103.871 99.0781 103.527 98.9219C103.184 98.7656 102.881 98.584 102.619 98.377C102.361 98.1699 102.16 97.9316 102.016 97.6621C101.871 97.3887 101.799 97.0723 101.799 96.7129C101.799 96.3613 101.873 96.041 102.021 95.752C102.174 95.4629 102.389 95.2148 102.666 95.0078C102.943 94.7969 103.27 94.6348 103.645 94.5215C104.023 94.4082 104.441 94.3516 104.898 94.3516C105.531 94.3516 106.078 94.4668 106.539 94.6973C107.004 94.9277 107.363 95.2402 107.617 95.6348C107.871 96.0293 107.998 96.4727 107.998 96.9648H106.393C106.393 96.6992 106.336 96.4648 106.223 96.2617C106.113 96.0586 105.945 95.8984 105.719 95.7812C105.496 95.6641 105.215 95.6055 104.875 95.6055C104.547 95.6055 104.273 95.6543 104.055 95.752C103.84 95.8496 103.678 95.9824 103.568 96.1504C103.463 96.3184 103.41 96.5059 103.41 96.7129C103.41 96.8691 103.447 97.0098 103.521 97.1348C103.596 97.2559 103.707 97.3711 103.855 97.4805C104.004 97.5859 104.188 97.6855 104.406 97.7793C104.629 97.8691 104.887 97.959 105.18 98.0488C105.648 98.1895 106.059 98.3457 106.41 98.5176C106.766 98.6895 107.061 98.8848 107.295 99.1035C107.533 99.3223 107.711 99.5684 107.828 99.8418C107.949 100.115 108.01 100.426 108.01 100.773C108.01 101.141 107.938 101.469 107.793 101.758C107.648 102.047 107.441 102.293 107.172 102.496C106.902 102.699 106.578 102.854 106.199 102.959C105.824 103.064 105.404 103.117 104.939 103.117C104.525 103.117 104.115 103.062 103.709 102.953C103.307 102.84 102.941 102.672 102.613 102.449C102.285 102.223 102.023 101.938 101.828 101.594C101.633 101.246 101.535 100.84 101.535 100.375H103.152C103.152 100.645 103.195 100.875 103.281 101.066C103.371 101.254 103.496 101.408 103.656 101.529C103.82 101.646 104.012 101.732 104.23 101.787C104.449 101.842 104.686 101.869 104.939 101.869C105.268 101.869 105.537 101.824 105.748 101.734C105.963 101.641 106.123 101.512 106.229 101.348C106.338 101.184 106.393 100.996 106.393 100.785ZM112.914 94.4688V103H111.309V94.4688H112.914ZM115.562 94.4688V95.7402H108.689V94.4688H115.562ZM116.635 94.4688H119.734C120.383 94.4688 120.939 94.5664 121.404 94.7617C121.869 94.957 122.227 95.2461 122.477 95.6289C122.727 96.0117 122.852 96.4824 122.852 97.041C122.852 97.4824 122.773 97.8652 122.617 98.1895C122.461 98.5137 122.24 98.7852 121.955 99.0039C121.674 99.2227 121.342 99.3945 120.959 99.5195L120.455 99.7773H117.719L117.707 98.5059H119.752C120.084 98.5059 120.359 98.4473 120.578 98.3301C120.797 98.2129 120.961 98.0508 121.07 97.8438C121.184 97.6367 121.24 97.4004 121.24 97.1348C121.24 96.8496 121.186 96.6035 121.076 96.3965C120.967 96.1855 120.801 96.0234 120.578 95.9102C120.355 95.7969 120.074 95.7402 119.734 95.7402H118.246V103H116.635V94.4688ZM121.451 103L119.477 99.1797L121.182 99.1738L123.18 102.918V103H121.451ZM127.656 95.7637L125.225 103H123.52L126.707 94.4688H127.797L127.656 95.7637ZM129.689 103L127.246 95.7637L127.1 94.4688H128.195L131.4 103H129.689ZM129.578 99.8301V101.102H125.002V99.8301H129.578ZM135.561 99.8887H133.363V98.623H135.561C135.92 98.623 136.211 98.5645 136.434 98.4473C136.66 98.3262 136.826 98.1621 136.932 97.9551C137.037 97.7441 137.09 97.5039 137.09 97.2344C137.09 96.9727 137.037 96.7285 136.932 96.502C136.826 96.2754 136.66 96.0918 136.434 95.9512C136.211 95.8105 135.92 95.7402 135.561 95.7402H133.891V103H132.279V94.4688H135.561C136.225 94.4688 136.791 94.5879 137.26 94.8262C137.732 95.0605 138.092 95.3867 138.338 95.8047C138.588 96.2188 138.713 96.6914 138.713 97.2227C138.713 97.7734 138.588 98.248 138.338 98.6465C138.092 99.0449 137.732 99.3516 137.26 99.5664C136.791 99.7812 136.225 99.8887 135.561 99.8887Z" fill="#232337"/>
<path d="M77 78.6819C77 82.1716 79.8288 85 83.3181 85H119.682C123.172 85 126 82.1712 126 78.6819V42.3183C126 38.8284 123.171 36 119.682 36H83.3183C79.8284 36 77 38.8288 77 42.3181V78.6817V78.6819Z" fill="#563D7C"/>
<path d="M97.3193 57.6745V50.7354H103.427C104.009 50.7354 104.57 50.7838 105.11 50.8809C105.65 50.9777 106.128 51.1508 106.544 51.4002C106.959 51.6496 107.292 51.9958 107.541 52.4389C107.79 52.8822 107.915 53.4501 107.915 54.1424C107.915 55.3891 107.541 56.2894 106.793 56.8434C106.045 57.3975 105.089 57.6745 103.926 57.6745H97.3193ZM90.7956 45.666V75.334H105.173C106.502 75.334 107.797 75.1678 109.058 74.8354C110.318 74.5029 111.44 73.9905 112.423 73.298C113.407 72.6055 114.189 71.712 114.771 70.6179C115.353 69.5237 115.644 68.2286 115.644 66.7328C115.644 64.8767 115.193 63.2909 114.293 61.9752C113.393 60.6593 112.029 59.7382 110.2 59.2118C111.53 58.5748 112.534 57.7575 113.213 56.7603C113.891 55.7631 114.231 54.5166 114.231 53.0206C114.231 51.6356 114.002 50.4722 113.545 49.5303C113.088 48.5886 112.444 47.8337 111.613 47.2658C110.782 46.6979 109.785 46.2892 108.621 46.04C107.458 45.7906 106.17 45.666 104.757 45.666H90.7956ZM97.3193 70.2646V62.1204H104.425C105.837 62.1204 106.973 62.4458 107.832 63.097C108.691 63.748 109.12 64.8352 109.12 66.3588C109.12 67.1345 108.988 67.7715 108.725 68.2701C108.462 68.7688 108.109 69.1636 107.666 69.4544C107.223 69.7453 106.71 69.953 106.128 70.0778C105.546 70.2022 104.937 70.2646 104.3 70.2646H97.3193Z" fill="white"/>
<defs>
<filter id="filter0_di_380_20" x="0" y="0" width="214" height="214" filterUnits="userSpaceOnUse" color-interpolation-filters="sRGB">
<feFlood flood-opacity="0" result="BackgroundImageFix"/>
<feColorMatrix in="SourceAlpha" type="matrix" values="0 0 0 0 0 0 0 0 0 0 0 0 0 0 0 0 0 0 127 0" result="hardAlpha"/>
<feOffset dx="4" dy="38"/>
<feGaussianBlur stdDeviation="31"/>
<feColorMatrix type="matrix" values="0 0 0 0 0 0 0 0 0 0 0 0 0 0 0 0 0 0 0.5 0"/>
<feBlend mode="normal" in2="BackgroundImageFix" result="effect1_dropShadow_380_20"/>
<feBlend mode="normal" in="SourceGraphic" in2="effect1_dropShadow_380_20" result="shape"/>
<feColorMatrix in="SourceAlpha" type="matrix" values="0 0 0 0 0 0 0 0 0 0 0 0 0 0 0 0 0 0 127 0" result="hardAlpha"/>
<feOffset dx="13" dy="-7"/>
<feGaussianBlur stdDeviation="4"/>
<feComposite in2="hardAlpha" operator="arithmetic" k2="-1" k3="1"/>
<feColorMatrix type="matrix" values="0 0 0 0 0 0 0 0 0 0 0 0 0 0 0 0 0 0 0.25 0"/>
<feBlend mode="normal" in2="shape" result="effect2_innerShadow_380_20"/>
</filter>
<radialGradient id="paint0_radial_380_20" cx="0" cy="0" r="1" gradientUnits="userSpaceOnUse" gradientTransform="translate(86.7705 41.7049) rotate(55.9679) scale(68.5431)">
<stop stop-color="white"/>
<stop offset="0.697917" stop-color="white" stop-opacity="0"/>
<stop offset="1" stop-color="white" stop-opacity="0"/>
</radialGradient>
</defs>
</svg>
