<svg width="214" height="214" viewBox="0 0 214 214" fill="none" xmlns="http://www.w3.org/2000/svg">
<g filter="url(#filter0_di_377_160)">
<rect x="58" y="24" width="90" height="90" rx="25" fill="#644ED3"/>
<rect x="58" y="24" width="90" height="90" rx="25" fill="url(#paint0_radial_377_160)" fill-opacity="0.7"/>
</g>
<path d="M95.2905 99.9595H97.0361C96.9896 100.577 96.8182 101.125 96.522 101.604C96.2257 102.077 95.8132 102.45 95.2842 102.721C94.7552 102.992 94.1141 103.127 93.3608 103.127C92.7811 103.127 92.2585 103.025 91.793 102.822C91.3317 102.615 90.936 102.321 90.606 101.94C90.2801 101.555 90.0304 101.094 89.8569 100.556C89.6834 100.014 89.5967 99.4072 89.5967 98.7344V98.0298C89.5967 97.3569 89.6855 96.7497 89.8633 96.208C90.041 95.6663 90.2949 95.2051 90.625 94.8242C90.9593 94.4391 91.3592 94.1429 91.8247 93.9355C92.2944 93.7282 92.8192 93.6245 93.3989 93.6245C94.1522 93.6245 94.7891 93.7642 95.3096 94.0435C95.8301 94.3185 96.2342 94.6973 96.522 95.1797C96.8097 95.6621 96.9832 96.2165 97.0425 96.8428H95.2969C95.263 96.4535 95.1784 96.1234 95.043 95.8525C94.9118 95.5817 94.7129 95.3765 94.4463 95.2368C94.1839 95.0929 93.8348 95.021 93.3989 95.021C93.0604 95.021 92.762 95.0845 92.5039 95.2114C92.25 95.3384 92.0384 95.5288 91.8691 95.7827C91.6999 96.0324 91.5729 96.3455 91.4883 96.7222C91.4036 97.0946 91.3613 97.5262 91.3613 98.0171V98.7344C91.3613 99.2041 91.3994 99.6252 91.4756 99.9976C91.5518 100.37 91.6702 100.685 91.8311 100.943C91.9919 101.201 92.1992 101.398 92.4531 101.534C92.707 101.669 93.0096 101.737 93.3608 101.737C93.7882 101.737 94.1353 101.669 94.4019 101.534C94.6727 101.398 94.8779 101.199 95.0176 100.937C95.1615 100.675 95.2524 100.349 95.2905 99.9595ZM103.225 100.601C103.225 100.423 103.198 100.264 103.143 100.125C103.092 99.9806 102.997 99.8516 102.857 99.7373C102.722 99.6188 102.529 99.5046 102.279 99.3945C102.034 99.2803 101.716 99.1618 101.327 99.0391C100.896 98.9036 100.493 98.7513 100.121 98.582C99.7487 98.4128 99.4207 98.216 99.1372 97.9917C98.8579 97.7674 98.64 97.5093 98.4834 97.2173C98.3268 96.9211 98.2485 96.5783 98.2485 96.189C98.2485 95.8081 98.3289 95.4611 98.4897 95.1479C98.6548 94.8348 98.8875 94.5661 99.188 94.3418C99.4884 94.1133 99.8418 93.9377 100.248 93.8149C100.659 93.6922 101.111 93.6309 101.606 93.6309C102.292 93.6309 102.884 93.7557 103.384 94.0054C103.887 94.255 104.277 94.5936 104.552 95.021C104.827 95.4484 104.964 95.9287 104.964 96.4619H103.225C103.225 96.1742 103.164 95.9202 103.041 95.7002C102.923 95.4801 102.741 95.3066 102.495 95.1797C102.254 95.0527 101.949 94.9893 101.581 94.9893C101.226 94.9893 100.929 95.0422 100.692 95.1479C100.46 95.2537 100.284 95.3976 100.166 95.5796C100.051 95.7616 99.9941 95.9647 99.9941 96.189C99.9941 96.3582 100.034 96.5106 100.115 96.646C100.195 96.7772 100.316 96.902 100.477 97.0205C100.637 97.1348 100.836 97.2427 101.073 97.3442C101.314 97.4416 101.594 97.5389 101.911 97.6362C102.419 97.7886 102.863 97.9578 103.244 98.144C103.629 98.3302 103.949 98.5418 104.203 98.7788C104.461 99.0158 104.653 99.2824 104.78 99.5786C104.911 99.8748 104.977 100.211 104.977 100.588C104.977 100.986 104.899 101.341 104.742 101.654C104.586 101.967 104.361 102.234 104.069 102.454C103.777 102.674 103.426 102.841 103.016 102.956C102.609 103.07 102.154 103.127 101.651 103.127C101.202 103.127 100.758 103.068 100.318 102.949C99.882 102.826 99.4863 102.645 99.1309 102.403C98.7754 102.158 98.4919 101.849 98.2803 101.477C98.0687 101.1 97.9629 100.66 97.9629 100.156H99.7148C99.7148 100.448 99.7614 100.698 99.8545 100.905C99.9518 101.108 100.087 101.276 100.261 101.407C100.438 101.534 100.646 101.627 100.883 101.686C101.12 101.745 101.376 101.775 101.651 101.775C102.006 101.775 102.298 101.726 102.527 101.629C102.76 101.527 102.933 101.388 103.047 101.21C103.166 101.032 103.225 100.829 103.225 100.601ZM111.16 100.601C111.16 100.423 111.132 100.264 111.077 100.125C111.026 99.9806 110.931 99.8516 110.792 99.7373C110.656 99.6188 110.464 99.5046 110.214 99.3945C109.968 99.2803 109.651 99.1618 109.262 99.0391C108.83 98.9036 108.428 98.7513 108.056 98.582C107.683 98.4128 107.355 98.216 107.072 97.9917C106.792 97.7674 106.575 97.5093 106.418 97.2173C106.261 96.9211 106.183 96.5783 106.183 96.189C106.183 95.8081 106.264 95.4611 106.424 95.1479C106.589 94.8348 106.822 94.5661 107.123 94.3418C107.423 94.1133 107.776 93.9377 108.183 93.8149C108.593 93.6922 109.046 93.6309 109.541 93.6309C110.227 93.6309 110.819 93.7557 111.318 94.0054C111.822 94.255 112.211 94.5936 112.486 95.021C112.761 95.4484 112.899 95.9287 112.899 96.4619H111.16C111.16 96.1742 111.098 95.9202 110.976 95.7002C110.857 95.4801 110.675 95.3066 110.43 95.1797C110.188 95.0527 109.884 94.9893 109.516 94.9893C109.16 94.9893 108.864 95.0422 108.627 95.1479C108.394 95.2537 108.219 95.3976 108.1 95.5796C107.986 95.7616 107.929 95.9647 107.929 96.189C107.929 96.3582 107.969 96.5106 108.049 96.646C108.13 96.7772 108.25 96.902 108.411 97.0205C108.572 97.1348 108.771 97.2427 109.008 97.3442C109.249 97.4416 109.528 97.5389 109.846 97.6362C110.354 97.7886 110.798 97.9578 111.179 98.144C111.564 98.3302 111.883 98.5418 112.137 98.7788C112.395 99.0158 112.588 99.2824 112.715 99.5786C112.846 99.8748 112.912 100.211 112.912 100.588C112.912 100.986 112.833 101.341 112.677 101.654C112.52 101.967 112.296 102.234 112.004 102.454C111.712 102.674 111.361 102.841 110.95 102.956C110.544 103.07 110.089 103.127 109.585 103.127C109.137 103.127 108.693 103.068 108.252 102.949C107.817 102.826 107.421 102.645 107.065 102.403C106.71 102.158 106.426 101.849 106.215 101.477C106.003 101.1 105.897 100.66 105.897 100.156H107.649C107.649 100.448 107.696 100.698 107.789 100.905C107.886 101.108 108.022 101.276 108.195 101.407C108.373 101.534 108.58 101.627 108.817 101.686C109.054 101.745 109.31 101.775 109.585 101.775C109.941 101.775 110.233 101.726 110.461 101.629C110.694 101.527 110.868 101.388 110.982 101.21C111.1 101.032 111.16 100.829 111.16 100.601Z" fill="#232337"/>
<path d="M85.2022 80.6877L81.3534 37.5176H123.647L119.794 80.6812L102.474 85.4828L85.2022 80.6877Z" fill="#2078B9"/>
<path d="M102.5 81.8128L116.496 77.9326L119.788 41.0471H102.5V81.8128Z" fill="#33A9DC"/>
<path d="M102.5 56.6876H109.507L109.99 51.2659H102.5V45.9712H115.777L115.65 47.3918L114.348 61.9823H102.5V56.6876Z" fill="white"/>
<path d="M102.532 70.4383L102.508 70.4452L96.612 68.8531L96.2349 64.6302H90.9207L91.6622 72.9438L102.508 75.9538L102.532 75.947V70.4383Z" fill="#EBEBEB"/>
<path d="M109.056 61.7584L108.419 68.8489L102.513 70.4429V75.9516L113.368 72.9434L113.447 72.0488L114.368 61.7584H109.056Z" fill="white"/>
<path d="M102.518 45.9712V51.2659H89.7294L89.6233 50.0761L89.3822 47.3918L89.2555 45.9712H102.518ZM102.5 56.6884V61.9831H96.6782L96.5721 60.7933L96.3306 58.109L96.2043 56.6884H102.5Z" fill="#EBEBEB"/>
<defs>
<filter id="filter0_di_377_160" x="0" y="0" width="214" height="214" filterUnits="userSpaceOnUse" color-interpolation-filters="sRGB">
<feFlood flood-opacity="0" result="BackgroundImageFix"/>
<feColorMatrix in="SourceAlpha" type="matrix" values="0 0 0 0 0 0 0 0 0 0 0 0 0 0 0 0 0 0 127 0" result="hardAlpha"/>
<feOffset dx="4" dy="38"/>
<feGaussianBlur stdDeviation="31"/>
<feColorMatrix type="matrix" values="0 0 0 0 0 0 0 0 0 0 0 0 0 0 0 0 0 0 0.5 0"/>
<feBlend mode="normal" in2="BackgroundImageFix" result="effect1_dropShadow_377_160"/>
<feBlend mode="normal" in="SourceGraphic" in2="effect1_dropShadow_377_160" result="shape"/>
<feColorMatrix in="SourceAlpha" type="matrix" values="0 0 0 0 0 0 0 0 0 0 0 0 0 0 0 0 0 0 127 0" result="hardAlpha"/>
<feOffset dx="13" dy="-7"/>
<feGaussianBlur stdDeviation="4"/>
<feComposite in2="hardAlpha" operator="arithmetic" k2="-1" k3="1"/>
<feColorMatrix type="matrix" values="0 0 0 0 0 0 0 0 0 0 0 0 0 0 0 0 0 0 0.25 0"/>
<feBlend mode="normal" in2="shape" result="effect2_innerShadow_377_160"/>
</filter>
<radialGradient id="paint0_radial_377_160" cx="0" cy="0" r="1" gradientUnits="userSpaceOnUse" gradientTransform="translate(86.7705 41.7049) rotate(55.9679) scale(68.5431)">
<stop stop-color="white"/>
<stop offset="0.697917" stop-color="white" stop-opacity="0"/>
<stop offset="1" stop-color="white" stop-opacity="0"/>
</radialGradient>
</defs>
</svg>
