<svg width="214" height="214" viewBox="0 0 214 214" fill="none" xmlns="http://www.w3.org/2000/svg">
<g filter="url(#filter0_di_380_22)">
<rect x="58" y="24" width="90" height="90" rx="25" fill="#644ED3"/>
<rect x="58" y="24" width="90" height="90" rx="25" fill="url(#paint0_radial_380_22)" fill-opacity="0.7"/>
</g>
<path d="M86.6279 93.7578V103H84.8823V93.7578H86.6279ZM90.354 97.7505V99.1279H86.1709V97.7505H90.354ZM90.8428 93.7578V95.1353H86.1709V93.7578H90.8428ZM93.8896 93.7578V103H92.144V93.7578H93.8896ZM102.986 98.2202V101.819C102.85 101.993 102.637 102.181 102.345 102.384C102.057 102.587 101.68 102.763 101.215 102.911C100.749 103.055 100.178 103.127 99.501 103.127C98.9128 103.127 98.3753 103.03 97.8887 102.835C97.402 102.636 96.9831 102.346 96.6318 101.965C96.2806 101.584 96.0098 101.119 95.8193 100.569C95.6289 100.019 95.5337 99.3903 95.5337 98.6836V98.0742C95.5337 97.3675 95.6226 96.7391 95.8003 96.189C95.9823 95.6388 96.2404 95.1733 96.5747 94.7925C96.9132 94.4116 97.3174 94.1217 97.7871 93.9229C98.2611 93.724 98.79 93.6245 99.374 93.6245C100.157 93.6245 100.8 93.7536 101.304 94.0117C101.812 94.2699 102.201 94.6253 102.472 95.0781C102.743 95.5267 102.912 96.043 102.979 96.627H101.278C101.232 96.3053 101.139 96.0239 100.999 95.7827C100.859 95.5373 100.66 95.3468 100.402 95.2114C100.148 95.0718 99.8184 95.002 99.4121 95.002C99.0693 95.002 98.7668 95.0697 98.5044 95.2051C98.242 95.3405 98.022 95.5373 97.8442 95.7954C97.6665 96.0535 97.5311 96.373 97.438 96.7539C97.3491 97.1348 97.3047 97.5706 97.3047 98.0615V98.6836C97.3047 99.1787 97.3555 99.6188 97.457 100.004C97.5586 100.385 97.7046 100.706 97.895 100.969C98.0897 101.227 98.3288 101.424 98.6123 101.559C98.9001 101.69 99.2259 101.756 99.5898 101.756C99.9199 101.756 100.193 101.728 100.409 101.673C100.629 101.614 100.804 101.544 100.936 101.464C101.067 101.383 101.168 101.305 101.24 101.229V99.4961H99.4058V98.2202H102.986ZM105.398 93.7578H106.909L109.435 100.715L111.955 93.7578H113.472L110.038 103H108.826L105.398 93.7578ZM104.636 93.7578H106.115L106.382 100.15V103H104.636V93.7578ZM112.749 93.7578H114.234V103H112.488V100.15L112.749 93.7578ZM119.801 95.1606L117.167 103H115.319L118.772 93.7578H119.953L119.801 95.1606ZM122.003 103L119.356 95.1606L119.198 93.7578H120.385L123.857 103H122.003ZM121.883 99.5659V100.943H116.925V99.5659H121.883Z" fill="#232337"/>
<path d="M95.3333 86C99.8413 86 103.5 82.3414 103.5 77.8334V69.6667H95.3333C90.8253 69.6667 87.1667 73.3254 87.1667 77.8334C87.1667 82.3414 90.8253 86 95.3333 86Z" fill="#0ACF83"/>
<path d="M87.1667 61.5C87.1667 56.992 90.8253 53.3333 95.3333 53.3333H103.5V69.6666H95.3333C90.8253 69.6666 87.1667 66.008 87.1667 61.5Z" fill="#A259FF"/>
<path d="M87.1667 45.1667C87.1667 40.6587 90.8253 37 95.3333 37H103.5V53.3333H95.3333C90.8253 53.3333 87.1667 49.6747 87.1667 45.1667Z" fill="#F24E1E"/>
<path d="M103.5 37H111.667C116.175 37 119.833 40.6587 119.833 45.1667C119.833 49.6747 116.175 53.3333 111.667 53.3333H103.5V37Z" fill="#FF7262"/>
<path d="M119.833 61.5C119.833 66.008 116.175 69.6666 111.667 69.6666C107.159 69.6666 103.5 66.008 103.5 61.5C103.5 56.992 107.159 53.3333 111.667 53.3333C116.175 53.3333 119.833 56.992 119.833 61.5Z" fill="#1ABCFE"/>
<defs>
<filter id="filter0_di_380_22" x="0" y="0" width="214" height="214" filterUnits="userSpaceOnUse" color-interpolation-filters="sRGB">
<feFlood flood-opacity="0" result="BackgroundImageFix"/>
<feColorMatrix in="SourceAlpha" type="matrix" values="0 0 0 0 0 0 0 0 0 0 0 0 0 0 0 0 0 0 127 0" result="hardAlpha"/>
<feOffset dx="4" dy="38"/>
<feGaussianBlur stdDeviation="31"/>
<feColorMatrix type="matrix" values="0 0 0 0 0 0 0 0 0 0 0 0 0 0 0 0 0 0 0.5 0"/>
<feBlend mode="normal" in2="BackgroundImageFix" result="effect1_dropShadow_380_22"/>
<feBlend mode="normal" in="SourceGraphic" in2="effect1_dropShadow_380_22" result="shape"/>
<feColorMatrix in="SourceAlpha" type="matrix" values="0 0 0 0 0 0 0 0 0 0 0 0 0 0 0 0 0 0 127 0" result="hardAlpha"/>
<feOffset dx="13" dy="-7"/>
<feGaussianBlur stdDeviation="4"/>
<feComposite in2="hardAlpha" operator="arithmetic" k2="-1" k3="1"/>
<feColorMatrix type="matrix" values="0 0 0 0 0 0 0 0 0 0 0 0 0 0 0 0 0 0 0.25 0"/>
<feBlend mode="normal" in2="shape" result="effect2_innerShadow_380_22"/>
</filter>
<radialGradient id="paint0_radial_380_22" cx="0" cy="0" r="1" gradientUnits="userSpaceOnUse" gradientTransform="translate(86.7705 41.7049) rotate(55.9679) scale(68.5431)">
<stop stop-color="white"/>
<stop offset="0.697917" stop-color="white" stop-opacity="0"/>
<stop offset="1" stop-color="white" stop-opacity="0"/>
</radialGradient>
</defs>
</svg>
