<svg width="214" height="214" viewBox="0 0 214 214" fill="none" xmlns="http://www.w3.org/2000/svg">
<g filter="url(#filter0_di_380_25)">
<rect x="58" y="24" width="90" height="90" rx="25" fill="#644ED3"/>
<rect x="58" y="24" width="90" height="90" rx="25" fill="url(#paint0_radial_380_25)" fill-opacity="0.7"/>
</g>
<path d="M76.7422 94.7578V104H74.9966V94.7578H76.7422ZM86.0542 94.7578V104H84.3022L80.373 97.5889V104H78.6274V94.7578H80.373L84.3149 101.175V94.7578H86.0542ZM89.5771 94.7578V104H87.8315V94.7578H89.5771ZM95.125 94.7578L91.418 99.2646L89.2979 101.531L88.9868 99.8359L90.4595 97.9253L92.9858 94.7578H95.125ZM93.1826 104L90.3071 99.6709L91.5576 98.541L95.2583 104H93.1826ZM100.908 101.601C100.908 101.423 100.88 101.264 100.825 101.125C100.774 100.981 100.679 100.852 100.54 100.737C100.404 100.619 100.212 100.505 99.9619 100.395C99.7165 100.28 99.3991 100.162 99.0098 100.039C98.5781 99.9036 98.1761 99.7513 97.8037 99.582C97.4313 99.4128 97.1034 99.216 96.8198 98.9917C96.5405 98.7674 96.3226 98.5093 96.166 98.2173C96.0094 97.9211 95.9312 97.5783 95.9312 97.189C95.9312 96.8081 96.0116 96.4611 96.1724 96.1479C96.3374 95.8348 96.5701 95.5661 96.8706 95.3418C97.1711 95.1133 97.5244 94.9377 97.9307 94.8149C98.3411 94.6922 98.7939 94.6309 99.2891 94.6309C99.9746 94.6309 100.567 94.7557 101.066 95.0054C101.57 95.255 101.959 95.5936 102.234 96.021C102.509 96.4484 102.647 96.9287 102.647 97.4619H100.908C100.908 97.1742 100.846 96.9202 100.724 96.7002C100.605 96.4801 100.423 96.3066 100.178 96.1797C99.9365 96.0527 99.6318 95.9893 99.2637 95.9893C98.9082 95.9893 98.612 96.0422 98.375 96.1479C98.1423 96.2537 97.9666 96.3976 97.8481 96.5796C97.7339 96.7616 97.6768 96.9647 97.6768 97.189C97.6768 97.3582 97.717 97.5106 97.7974 97.646C97.8778 97.7772 97.9984 97.902 98.1592 98.0205C98.32 98.1348 98.5189 98.2427 98.7559 98.3442C98.9971 98.4416 99.2764 98.5389 99.5938 98.6362C100.102 98.7886 100.546 98.9578 100.927 99.144C101.312 99.3302 101.631 99.5418 101.885 99.7788C102.143 100.016 102.336 100.282 102.463 100.579C102.594 100.875 102.66 101.211 102.66 101.588C102.66 101.986 102.581 102.341 102.425 102.654C102.268 102.967 102.044 103.234 101.752 103.454C101.46 103.674 101.109 103.841 100.698 103.956C100.292 104.07 99.8371 104.127 99.3335 104.127C98.8849 104.127 98.4406 104.068 98.0005 103.949C97.5646 103.826 97.1689 103.645 96.8135 103.403C96.458 103.158 96.1745 102.849 95.9629 102.477C95.7513 102.1 95.6455 101.66 95.6455 101.156H97.3975C97.3975 101.448 97.444 101.698 97.5371 101.905C97.6344 102.108 97.7699 102.276 97.9434 102.407C98.1211 102.534 98.3285 102.627 98.5654 102.686C98.8024 102.745 99.0584 102.775 99.3335 102.775C99.689 102.775 99.981 102.726 100.209 102.629C100.442 102.527 100.616 102.388 100.73 102.21C100.848 102.032 100.908 101.829 100.908 101.601ZM107.56 100.629H105.18V99.2583H107.56C107.949 99.2583 108.265 99.1948 108.506 99.0679C108.751 98.9367 108.931 98.759 109.045 98.5347C109.16 98.3062 109.217 98.0459 109.217 97.7539C109.217 97.4704 109.16 97.2059 109.045 96.9604C108.931 96.715 108.751 96.5161 108.506 96.3638C108.265 96.2114 107.949 96.1353 107.56 96.1353H105.751V104H104.005V94.7578H107.56C108.279 94.7578 108.893 94.8869 109.401 95.145C109.913 95.3989 110.302 95.7523 110.569 96.2051C110.84 96.6536 110.975 97.1657 110.975 97.7412C110.975 98.3379 110.84 98.8521 110.569 99.2837C110.302 99.7153 109.913 100.048 109.401 100.28C108.893 100.513 108.279 100.629 107.56 100.629ZM115.019 96.1606L112.384 104H110.537L113.99 94.7578H115.171L115.019 96.1606ZM117.221 104L114.574 96.1606L114.416 94.7578H115.603L119.075 104H117.221ZM117.101 100.566V101.943H112.143V100.566H117.101ZM125.321 100.959H127.066C127.02 101.577 126.848 102.125 126.552 102.604C126.256 103.077 125.843 103.45 125.314 103.721C124.785 103.992 124.144 104.127 123.391 104.127C122.811 104.127 122.289 104.025 121.823 103.822C121.362 103.615 120.966 103.321 120.636 102.94C120.31 102.555 120.061 102.094 119.887 101.556C119.714 101.014 119.627 100.407 119.627 99.7344V99.0298C119.627 98.3569 119.716 97.7497 119.894 97.208C120.071 96.6663 120.325 96.2051 120.655 95.8242C120.99 95.4391 121.389 95.1429 121.855 94.9355C122.325 94.7282 122.849 94.6245 123.429 94.6245C124.182 94.6245 124.819 94.7642 125.34 95.0435C125.86 95.3185 126.264 95.6973 126.552 96.1797C126.84 96.6621 127.014 97.2165 127.073 97.8428H125.327C125.293 97.4535 125.209 97.1234 125.073 96.8525C124.942 96.5817 124.743 96.3765 124.477 96.2368C124.214 96.0929 123.865 96.021 123.429 96.021C123.091 96.021 122.792 96.0845 122.534 96.2114C122.28 96.3384 122.069 96.5288 121.899 96.7827C121.73 97.0324 121.603 97.3455 121.519 97.7222C121.434 98.0946 121.392 98.5262 121.392 99.0171V99.7344C121.392 100.204 121.43 100.625 121.506 100.998C121.582 101.37 121.701 101.685 121.861 101.943C122.022 102.201 122.229 102.398 122.483 102.534C122.737 102.669 123.04 102.737 123.391 102.737C123.819 102.737 124.166 102.669 124.432 102.534C124.703 102.398 124.908 102.199 125.048 101.937C125.192 101.675 125.283 101.349 125.321 100.959ZM134.544 102.629V104H129.631V102.629H134.544ZM130.164 94.7578V104H128.418V94.7578H130.164ZM133.903 98.5728V99.9121H129.631V98.5728H133.903ZM134.525 94.7578V96.1353H129.631V94.7578H134.525Z" fill="#232337"/>
<g opacity="0.783">
<path opacity="0.783" d="M98.4304 40.2855L81.3833 57.7131C74.9526 64.1438 85.569 63.6111 89.4122 66.0464C91.2006 67.1879 83.7045 68.6719 85.2265 70.2321C86.7105 71.7541 94.2067 73.162 95.6907 74.646C97.1747 76.1681 92.6846 77.7663 94.1686 79.3264C95.6146 80.8484 99.0773 79.4025 99.6861 82.8652C100.143 85.4146 106.041 84.1589 108.704 81.9519C110.341 80.544 105.85 80.544 107.334 79.022C111.064 75.2549 114.374 77.3096 115.706 73.847C116.467 71.9824 110.074 70.6506 111.787 69.471C115.858 66.6172 130.698 65.1712 123.849 58.3219L106.231 40.2855C104.024 38.2307 100.447 38.2307 98.4304 40.2855ZM117.951 73.847C117.951 74.7221 124.686 75.2168 124.305 73.6567C123.773 70.9931 118.674 71.2214 117.951 73.847ZM89.26 78.4512C90.782 79.783 93.1032 78.1468 93.8262 76.3203C92.3422 74.3416 86.8627 76.3964 89.26 78.4512ZM117.114 75.6734C115.211 77.4238 117.456 79.2122 119.321 78.0326C119.815 77.6902 119.283 76.092 117.114 75.6734Z" fill="black"/>
<path opacity="0.576" d="M98.4304 40.666L81.3833 58.0936C74.9526 64.5623 85.569 64.0296 89.4122 66.4649C91.2006 67.6065 83.7045 69.0905 85.2265 70.6506C86.7105 72.1727 94.2067 73.5806 95.6907 75.0646C97.1747 76.5866 92.6846 78.1848 94.1686 79.7449C95.6146 81.267 99.0773 79.821 99.6861 83.2837C100.143 85.8332 106.041 84.5775 108.704 82.3705C110.341 80.9626 105.85 80.9626 107.334 79.4405C111.064 75.6734 114.374 77.7282 115.706 74.2655C116.467 72.401 110.074 71.0692 111.787 69.8896C115.82 67.0357 130.698 65.5897 123.849 58.7405L106.231 40.666C104.024 38.6112 100.447 38.6112 98.4304 40.666ZM117.951 74.2655C117.951 75.1407 124.686 75.6353 124.305 74.0752C123.773 71.4116 118.674 71.6019 117.951 74.2655ZM89.26 78.8317C90.782 80.1635 93.1032 78.5273 93.8262 76.7008C92.3422 74.7602 86.8627 76.8149 89.26 78.8317ZM117.114 76.092C115.211 77.8423 117.456 79.6308 119.321 78.4512C119.815 78.1087 119.283 76.4725 117.114 76.092Z" fill="black"/>
</g>
<path d="M98.4304 39.8715L81.3833 57.2992C74.9526 63.7299 85.569 63.1971 89.4122 65.6324C91.2006 66.774 83.7045 68.258 85.2265 69.8181C86.7105 71.3402 94.2067 72.7481 95.6907 74.2321C97.1747 75.7542 92.6846 77.3523 94.1686 78.9124C95.6146 80.4345 99.0773 78.9885 99.6861 82.4512C100.143 85.0007 106.041 83.745 108.704 81.538C110.341 80.1301 105.85 80.1301 107.334 78.608C111.064 74.8409 114.374 76.8957 115.706 73.433C116.467 71.5685 110.074 70.2367 111.787 69.0571C115.82 66.2032 130.698 64.7573 123.849 57.908L106.231 39.8715C104.024 37.8167 100.447 37.8167 98.4304 39.8715ZM117.951 73.433C117.951 74.3082 124.686 74.8029 124.305 73.2428C123.773 70.6172 118.674 70.8075 117.951 73.433ZM89.26 78.0373C90.782 79.3691 93.1032 77.7328 93.8262 75.9064C92.3422 73.9277 86.8627 76.0205 89.26 78.0373ZM117.114 75.2595C115.211 77.0099 117.456 78.7983 119.321 77.6187C119.815 77.2762 119.283 75.6781 117.114 75.2595Z" fill="black"/>
<path d="M98.5158 40.2591L81.8107 57.379C75.4755 63.7141 85.8832 63.1862 89.6542 65.5619C91.3888 66.6931 84.0732 68.1638 85.5439 69.6722C87.0145 71.1805 94.3301 72.5381 95.8007 74.0087C97.2714 75.5171 92.8594 77.1008 94.2924 78.5715C95.7253 80.0799 99.1191 78.6469 99.7225 82.0407C100.175 84.5673 105.982 83.2851 108.546 81.1357L107.227 78.2698C110.884 74.5743 114.127 76.6106 115.447 73.2168C116.164 71.4068 109.942 70.087 111.601 68.918C115.56 66.1275 130.154 64.6946 123.442 57.9823L106.133 40.2591C104.021 38.2605 100.477 38.2605 98.5158 40.2591ZM94.4809 66.5046C94.858 66.5046 106.963 68.1261 102.287 69.3705C100.514 69.8607 92.3315 66.5046 94.4809 66.5046ZM117.672 73.2168C117.672 74.0841 124.271 74.5366 123.932 73.0283C123.404 70.4263 118.388 70.6526 117.672 73.2168ZM89.5033 77.7419C91.0117 79.024 93.2742 77.4402 93.9907 75.6302C92.5578 73.707 87.1654 75.7433 89.5033 77.7419ZM116.88 75.0269C115.032 76.7238 117.22 78.4961 119.03 77.3271C119.482 76.9877 118.954 75.4039 116.88 75.0269Z" fill="url(#paint1_linear_380_25)"/>
<path opacity="0.505" d="M82.9054 58.2505C78.2631 62.8167 86.4061 61.561 92.6466 63.9963L105.584 41.2795C103.643 39.2628 101.132 39.453 99.3436 41.2795L82.9054 58.2505Z" fill="url(#paint2_linear_380_25)"/>
<path d="M105.204 41.1272L111.939 47.9765C112.548 48.5853 112.548 49.879 112.205 50.2596L108.857 47.5198L108.21 51.5153L105.432 50.0312L100.942 52.8851L99.4578 46.911L97.0605 52.1241L91.0103 52.048C89.8688 52.048 90.021 50.8684 91.2006 49.6507C93.5598 47.0632 98.126 42.6112 99.5719 41.0891C101.094 39.5671 103.682 39.6432 105.204 41.1272Z" fill="url(#paint3_linear_380_25)"/>
<path opacity="0.217" d="M95.9571 73.5092C95.9571 73.5092 96.68 74.6126 96.6039 75.1454C96.4517 76.1728 94.2447 76.7055 94.7394 77.6187C95.2341 78.532 96.9844 77.9992 98.4304 78.9505C99.8764 79.9018 99.4959 81.8044 100.561 82.2991C102.616 83.2504 108.096 80.6628 107.791 80.739C107.525 80.777 102.426 81.8424 101.284 80.9292C99.9905 79.8638 99.61 79.1408 98.6207 78.4939C97.7074 77.9231 96.4517 77.6568 96.1473 77.2002C95.8429 76.7055 96.7561 76.0967 96.7942 75.1834C96.8703 74.5746 95.9571 73.5092 95.9571 73.5092Z" fill="url(#paint4_radial_380_25)"/>
<g opacity="0.276">
<path opacity="0.276" d="M95.9571 73.5092C95.9571 73.5092 96.68 74.6126 96.6039 75.1454C96.4517 76.1728 94.2447 76.7055 94.7394 77.6187C95.2341 78.532 96.9844 77.9992 98.4304 78.9505C99.8764 79.9018 99.4959 81.8044 100.561 82.2991C102.616 83.2504 108.096 80.6628 107.791 80.739C98.7348 80.777 100.447 78.4559 96.9464 76.8957C96.4517 76.6674 96.7181 76.0586 96.7942 75.1454C96.8703 74.5746 95.9571 73.5092 95.9571 73.5092Z" fill="url(#paint5_radial_380_25)"/>
</g>
<path opacity="0.453" d="M111.33 68.7527C119.435 65.7847 122.06 65.3661 124.724 62.6644C121.604 65.29 115.059 66.6979 109.732 69.019L111.33 68.7527Z" fill="url(#paint6_radial_380_25)"/>
<g opacity="0.512">
<path opacity="0.512" d="M111.33 68.3722C124.686 63.6538 122.441 63.6538 124.724 62.2839C120.462 63.9202 112.548 64.0724 109.732 68.6385L111.33 68.3722Z" fill="url(#paint7_radial_380_25)"/>
</g>
<path opacity="0.286" d="M122.974 72.1393C122.974 72.4437 122.213 72.672 121.223 72.672C120.272 72.672 119.473 72.4437 119.473 72.1393C119.473 71.8349 120.234 71.6066 121.223 71.6066C122.213 71.6066 122.974 71.8349 122.974 72.1393Z" fill="url(#paint8_linear_380_25)"/>
<g opacity="0.621">
<path opacity="0.621" d="M123.582 72.7481C123.582 73.395 122.517 73.8897 121.261 73.8897C119.968 73.8897 118.94 73.3569 118.94 72.7481C118.94 72.1012 120.006 71.6066 121.261 71.6066C122.555 71.6066 123.582 72.1393 123.582 72.7481Z" fill="url(#paint9_linear_380_25)"/>
</g>
<path d="M118.065 73.3949C118.902 74.156 123.468 74.5365 124.229 73.1666C122.745 74.2321 119.473 73.8516 118.065 73.3949Z" fill="url(#paint10_radial_380_25)"/>
<path opacity="0.286" d="M118.065 75.9444C118.217 76.2869 118.141 76.6674 117.837 76.8196C117.532 76.9718 117.152 76.8196 117 76.5152C116.847 76.1727 116.923 75.7922 117.228 75.64C117.532 75.4498 117.913 75.602 118.065 75.9444Z" fill="url(#paint11_linear_380_25)"/>
<g opacity="0.621">
<path opacity="0.621" d="M118.407 76.0966C118.674 76.5912 118.522 77.162 118.065 77.3903C117.608 77.6186 117.076 77.3903 116.809 76.8957C116.543 76.401 116.695 75.8302 117.152 75.6019C117.608 75.3736 118.141 75.6019 118.407 76.0966Z" fill="url(#paint12_linear_380_25)"/>
</g>
<path d="M116.923 77.4665C117.57 77.9992 120.082 78.0372 119.13 76.5532C119.397 77.7328 117.684 77.6187 116.923 77.4665Z" fill="url(#paint13_radial_380_25)"/>
<path d="M86.1397 69.6659C86.1397 69.5517 94.6633 72.2534 96.1093 73.7374C94.9297 72.5578 88.8414 69.8942 87.9282 69.8561C87.0149 69.8181 86.2539 69.742 86.1397 69.6659Z" fill="url(#paint14_radial_380_25)"/>
<path opacity="0.286" d="M92.5207 75.4716C92.6056 75.6567 92.0108 75.9628 91.1548 76.1802C90.2987 76.3977 89.5765 76.4261 89.4915 76.241C89.4066 76.0559 90.0014 75.7499 90.8574 75.5324C91.7135 75.315 92.4357 75.2865 92.5207 75.4716Z" fill="url(#paint15_linear_380_25)"/>
<g opacity="0.621">
<path opacity="0.621" d="M93.107 75.7174C93.3237 76.1068 92.6058 76.6594 91.5644 76.9599C90.523 77.2603 89.461 77.1945 89.257 76.828C89.0403 76.4386 89.7582 75.886 90.7996 75.5855C91.841 75.2851 92.8903 75.328 93.107 75.7174Z" fill="url(#paint16_linear_380_25)"/>
</g>
<g opacity="0.616">
<path opacity="0.616" d="M88.8795 76.8958C88.8795 76.8958 89.3361 78.1134 90.5918 78.1895C91.8855 78.2656 93.3315 76.6675 93.4456 76.0967C93.2173 76.5913 91.9997 78.0754 90.4396 78.0373C89.5263 78.0373 88.8795 76.8958 88.8795 76.8958Z" fill="url(#paint17_radial_380_25)"/>
</g>
<path d="M102.274 38.9203C100.98 38.9203 99.7242 39.3769 98.849 40.2901L81.8399 57.7178C80.2798 59.2779 79.8993 60.3053 80.0134 60.876C80.0515 61.1804 80.2037 61.4088 80.5081 61.6751C80.8125 61.9415 81.2691 62.2078 81.8019 62.4362C82.9054 62.8928 84.3513 63.2733 85.7973 63.6538C87.2432 64.0343 88.6511 64.4529 89.7166 65.1378C89.8688 65.252 90.021 65.3661 90.1352 65.5564C90.2493 65.7466 90.2874 65.9749 90.2493 66.2033C90.1732 66.6218 89.9069 66.8501 89.6405 67.0404C89.1078 67.459 88.3848 67.7634 87.6618 68.1058C86.9388 68.4483 86.2158 68.8288 85.8353 69.0952C85.6451 69.2474 85.569 69.3615 85.607 69.3615C85.607 69.3615 85.569 69.2474 85.6451 69.3235C85.8734 69.5518 86.5964 69.9704 87.5096 70.3128C88.4228 70.6553 89.5263 71.0358 90.6298 71.3783C91.7333 71.7588 92.8749 72.1012 93.8262 72.4818C94.7775 72.8623 95.5765 73.2047 96.0712 73.7375C96.3376 74.0038 96.5278 74.3463 96.5659 74.6507C96.6039 74.9932 96.5278 75.2976 96.3756 75.5639C96.1093 76.0967 95.6907 76.5152 95.3482 76.8957C94.9677 77.2763 94.6252 77.6568 94.5111 77.9231C94.435 78.0373 94.435 78.1134 94.435 78.1895C94.435 78.2275 94.435 78.3037 94.5491 78.4178C95.0438 78.9505 96.1093 79.0266 97.3269 79.293C97.9357 79.4452 98.5826 79.6355 99.1153 80.1301C99.6481 80.6248 100.067 81.3097 100.257 82.2991C100.333 82.7176 100.561 82.9079 101.056 83.0601C101.589 83.2123 102.388 83.2504 103.263 83.1362C105.013 82.8698 107.106 82.0327 108.286 81.0434L108.362 80.9673C108.286 80.8912 108.095 80.777 107.791 80.6248C107.411 80.4345 106.992 80.2823 106.65 79.8638C106.497 79.6355 106.383 79.331 106.421 78.9886C106.459 78.6461 106.65 78.3798 106.878 78.1514C108.857 76.1728 110.759 75.6781 112.205 75.2976C112.928 75.1073 113.537 74.9171 113.993 74.6507C114.45 74.3463 114.831 73.9658 115.135 73.2047C115.173 73.1286 115.173 73.0906 115.135 73.0145C115.097 72.9003 114.983 72.7481 114.793 72.5959C114.412 72.2535 113.765 71.911 113.118 71.5305C112.471 71.188 111.863 70.8455 111.406 70.427C111.178 70.1987 110.949 69.9704 110.911 69.5518C110.873 69.1332 111.14 68.7908 111.444 68.5625C112.586 67.7634 114.298 67.1545 116.162 66.5077C118.027 65.8608 120.044 65.1759 121.642 64.4148C123.278 63.6538 124.458 62.7786 124.838 61.9034C125.028 61.4468 125.066 61.0282 124.876 60.4194C124.686 59.8106 124.229 59.1257 123.392 58.3266L105.812 40.3282C104.823 39.3769 103.529 38.9203 102.274 38.9203V38.9203ZM121.223 71.9871C120.12 72.0251 119.13 72.5198 118.712 73.3189C118.826 73.3569 118.94 73.4331 119.13 73.4711C119.701 73.5853 120.5 73.6994 121.261 73.6994C122.022 73.6994 122.821 73.6614 123.316 73.5092C123.506 73.4331 123.621 73.395 123.697 73.3569C123.582 72.9003 123.354 72.5959 122.898 72.3676C122.479 72.0632 121.832 71.949 121.223 71.9871ZM92.1138 75.7161C91.2387 75.64 90.1732 75.9825 89.6405 76.4391C89.3741 76.6674 89.26 76.8577 89.26 76.9718C89.26 77.086 89.298 77.2763 89.6405 77.5807C90.2113 78.0753 90.8201 77.9992 91.5431 77.6187C92.1519 77.2763 92.6846 76.6674 93.0271 76.0206C92.7988 75.8684 92.4944 75.7542 92.1138 75.7161ZM117.304 75.9825C117.114 76.2108 117.038 76.4391 117 76.5913C117 76.8196 117.038 76.9718 117.19 77.1241C117.494 77.4285 118.141 77.5426 118.826 77.1621C118.826 77.086 118.788 76.9718 118.674 76.8196C118.522 76.5152 118.027 76.1728 117.304 75.9825V75.9825Z" stroke="url(#paint18_radial_380_25)" stroke-width="0.485072"/>
<g opacity="0.325">
<path opacity="0.325" d="M92.9129 66.2032C91.8855 66.5077 88.5751 67.7634 89.0317 68.7147C89.4883 69.6279 97.2128 70.0084 98.3924 72.7481C98.9251 73.9277 97.2128 74.841 97.6313 76.0586C97.9738 77.0099 100.523 79.3691 102.159 80.5106C103.453 81.3858 105.127 79.7877 104.443 78.4939C103.377 76.4011 108.21 73.8516 110.379 72.672C111.634 71.9871 107.753 68.6385 107.753 68.6385L92.9129 66.2032Z" fill="url(#paint19_linear_380_25)"/>
</g>
<path d="M93.2934 67.1545C94.2067 67.8394 96.0332 67.4209 97.1366 67.9155C99.7622 69.0951 102.997 70.4269 102.388 68.0677L101.741 68.6385V67.5731L100.181 67.9536C100.181 67.9536 98.9631 67.0023 98.4304 66.6598C98.3162 66.5837 97.7074 67.1925 97.7074 67.1925L97.5933 66.5457C96.8322 66.4696 96.0712 66.4315 95.3863 66.4315C93.7881 66.4696 92.7227 66.6979 93.2934 67.1545Z" fill="url(#paint20_linear_380_25)"/>
<g opacity="0.478">
<path opacity="0.478" d="M110.531 69.2854C110.188 70.5792 114.907 72.3676 114.526 73.2808C113.765 75.2595 109.503 73.9277 106.231 78.0753C105.774 78.6841 106.878 80.815 106.726 80.5487C106.573 80.2823 105.432 78.5319 105.736 77.6567C106.65 74.9551 115.63 73.9277 113.993 72.6339C113.042 71.911 109.656 69.8562 110.531 69.2854Z" fill="url(#paint21_radial_380_25)"/>
</g>
<path opacity="0.586" d="M121.147 71.9871C121.147 72.1013 120.919 72.2154 120.614 72.2154C120.31 72.2154 120.082 72.1013 120.082 71.9871C120.082 71.8729 120.31 71.7588 120.614 71.7588C120.919 71.7588 121.147 71.8729 121.147 71.9871ZM117.684 75.9445C117.684 76.0586 117.532 76.1728 117.342 76.1728C117.152 76.1728 117 76.0586 117 75.9445C117 75.8303 117.152 75.7161 117.342 75.7161C117.532 75.7161 117.684 75.8303 117.684 75.9445ZM91.5431 75.7542C91.5431 75.8684 91.2767 75.9825 90.9723 75.9825C90.6679 75.9825 90.4015 75.8684 90.4015 75.7542C90.4015 75.64 90.6679 75.5259 90.9723 75.5259C91.2767 75.5259 91.5431 75.64 91.5431 75.7542Z" fill="white"/>
<path opacity="0.251" d="M91.2006 66.3174C88.2326 68.1439 83.6664 68.7907 88.6892 70.0084C88.0804 68.6766 89.983 68.8288 91.2006 66.3174Z" fill="url(#paint22_linear_380_25)"/>
<g opacity="0.363">
<path opacity="0.363" d="M101.703 82.9459C101.703 82.9459 106.269 82.5273 107.296 81.1955C107.905 80.4345 104.861 79.5213 105.508 78.7602C107.981 75.9444 110.074 76.0586 112.966 74.8409C115.858 73.6613 114.793 73.0906 113.841 72.5578C112.243 71.6827 108.666 70.7314 109.846 68.6005C111.025 66.4696 121.414 63.5016 121.414 63.5016C124.572 62.4361 124.153 60.4955 122.631 58.8593L113.385 49.6888C113.385 49.6888 113.841 58.4407 111.977 62.2078C109.656 66.812 97.365 71.9871 102.502 72.5578C104.328 72.7481 105.204 73.395 105.927 74.7648C107.449 77.6567 101.703 82.9459 101.703 82.9459Z" fill="url(#paint23_linear_380_25)"/>
</g>
<defs>
<filter id="filter0_di_380_25" x="0" y="0" width="214" height="214" filterUnits="userSpaceOnUse" color-interpolation-filters="sRGB">
<feFlood flood-opacity="0" result="BackgroundImageFix"/>
<feColorMatrix in="SourceAlpha" type="matrix" values="0 0 0 0 0 0 0 0 0 0 0 0 0 0 0 0 0 0 127 0" result="hardAlpha"/>
<feOffset dx="4" dy="38"/>
<feGaussianBlur stdDeviation="31"/>
<feColorMatrix type="matrix" values="0 0 0 0 0 0 0 0 0 0 0 0 0 0 0 0 0 0 0.5 0"/>
<feBlend mode="normal" in2="BackgroundImageFix" result="effect1_dropShadow_380_25"/>
<feBlend mode="normal" in="SourceGraphic" in2="effect1_dropShadow_380_25" result="shape"/>
<feColorMatrix in="SourceAlpha" type="matrix" values="0 0 0 0 0 0 0 0 0 0 0 0 0 0 0 0 0 0 127 0" result="hardAlpha"/>
<feOffset dx="13" dy="-7"/>
<feGaussianBlur stdDeviation="4"/>
<feComposite in2="hardAlpha" operator="arithmetic" k2="-1" k3="1"/>
<feColorMatrix type="matrix" values="0 0 0 0 0 0 0 0 0 0 0 0 0 0 0 0 0 0 0.25 0"/>
<feBlend mode="normal" in2="shape" result="effect2_innerShadow_380_25"/>
</filter>
<radialGradient id="paint0_radial_380_25" cx="0" cy="0" r="1" gradientUnits="userSpaceOnUse" gradientTransform="translate(86.7705 41.7049) rotate(55.9679) scale(68.5431)">
<stop stop-color="white"/>
<stop offset="0.697917" stop-color="white" stop-opacity="0"/>
<stop offset="1" stop-color="white" stop-opacity="0"/>
</radialGradient>
<linearGradient id="paint1_linear_380_25" x1="117.199" y1="51.3713" x2="108.282" y2="59.4341" gradientUnits="userSpaceOnUse">
<stop stop-color="#C0CDF9"/>
<stop offset="1" stop-color="#07092D" stop-opacity="0.288"/>
</linearGradient>
<linearGradient id="paint2_linear_380_25" x1="90.6525" y1="48.1572" x2="101.009" y2="58.5135" gradientUnits="userSpaceOnUse">
<stop stop-color="white"/>
<stop offset="1" stop-color="white" stop-opacity="0"/>
</linearGradient>
<linearGradient id="paint3_linear_380_25" x1="97.5664" y1="46.2501" x2="109.882" y2="58.5657" gradientUnits="userSpaceOnUse">
<stop stop-color="white"/>
<stop offset="1" stop-color="white" stop-opacity="0"/>
</linearGradient>
<radialGradient id="paint4_radial_380_25" cx="0" cy="0" r="1" gradientUnits="userSpaceOnUse" gradientTransform="translate(94.668 81.8312) scale(10.4514 6.98864)">
<stop stop-color="white"/>
<stop offset="1" stop-color="white" stop-opacity="0"/>
</radialGradient>
<radialGradient id="paint5_radial_380_25" cx="0" cy="0" r="1" gradientUnits="userSpaceOnUse" gradientTransform="translate(100.223 82.0817) scale(13.3328 8.9222)">
<stop stop-color="white"/>
<stop offset="1" stop-color="white" stop-opacity="0"/>
</radialGradient>
<radialGradient id="paint6_radial_380_25" cx="0" cy="0" r="1" gradientUnits="userSpaceOnUse" gradientTransform="translate(117.229 65.8394) scale(7.44042 3.1544)">
<stop stop-color="white"/>
<stop offset="1" stop-color="white" stop-opacity="0"/>
</radialGradient>
<radialGradient id="paint7_radial_380_25" cx="0" cy="0" r="1" gradientUnits="userSpaceOnUse" gradientTransform="translate(118.814 66.7151) scale(7.44042 3.1544)">
<stop stop-color="white"/>
<stop offset="1" stop-color="white" stop-opacity="0"/>
</radialGradient>
<linearGradient id="paint8_linear_380_25" x1="121.242" y1="71.3189" x2="121.269" y2="72.6901" gradientUnits="userSpaceOnUse">
<stop stop-color="white"/>
<stop offset="1" stop-color="white" stop-opacity="0"/>
</linearGradient>
<linearGradient id="paint9_linear_380_25" x1="121.26" y1="71.1371" x2="121.26" y2="73.2213" gradientUnits="userSpaceOnUse">
<stop stop-color="white"/>
<stop offset="1" stop-color="white" stop-opacity="0"/>
</linearGradient>
<radialGradient id="paint10_radial_380_25" cx="0" cy="0" r="1" gradientUnits="userSpaceOnUse" gradientTransform="translate(121.157 73.6357) scale(3.06171 0.45402)">
<stop stop-color="white"/>
<stop offset="1" stop-color="white" stop-opacity="0"/>
</radialGradient>
<linearGradient id="paint11_linear_380_25" x1="117.16" y1="75.5597" x2="117.835" y2="76.7523" gradientUnits="userSpaceOnUse">
<stop stop-color="white"/>
<stop offset="1" stop-color="white" stop-opacity="0"/>
</linearGradient>
<linearGradient id="paint12_linear_380_25" x1="116.902" y1="75.1273" x2="117.848" y2="76.9841" gradientUnits="userSpaceOnUse">
<stop stop-color="white"/>
<stop offset="1" stop-color="white" stop-opacity="0"/>
</linearGradient>
<radialGradient id="paint13_radial_380_25" cx="0" cy="0" r="1" gradientUnits="userSpaceOnUse" gradientTransform="translate(118.287 77.8338) rotate(-26.9026) scale(1.32501 0.450345)">
<stop stop-color="white"/>
<stop offset="1" stop-color="white" stop-opacity="0"/>
</radialGradient>
<radialGradient id="paint14_radial_380_25" cx="0" cy="0" r="1" gradientUnits="userSpaceOnUse" gradientTransform="translate(90.9193 71.0448) scale(4.94213 2.01067)">
<stop stop-color="white" stop-opacity="0.33"/>
<stop offset="1" stop-color="white" stop-opacity="0"/>
</radialGradient>
<linearGradient id="paint15_linear_380_25" x1="90.7566" y1="75.3544" x2="90.8235" y2="75.9973" gradientUnits="userSpaceOnUse">
<stop stop-color="white"/>
<stop offset="1" stop-color="white" stop-opacity="0"/>
</linearGradient>
<linearGradient id="paint16_linear_380_25" x1="90.6398" y1="75.3036" x2="90.6676" y2="76.2555" gradientUnits="userSpaceOnUse">
<stop stop-color="white"/>
<stop offset="1" stop-color="white" stop-opacity="0"/>
</linearGradient>
<radialGradient id="paint17_radial_380_25" cx="0" cy="0" r="1" gradientUnits="userSpaceOnUse" gradientTransform="translate(90.971 78.169) rotate(-15.4957) scale(2.79982 1.04591)">
<stop stop-color="white"/>
<stop offset="1" stop-color="white" stop-opacity="0"/>
</radialGradient>
<radialGradient id="paint18_radial_380_25" cx="0" cy="0" r="1" gradientUnits="userSpaceOnUse" gradientTransform="translate(104.339 43.737) scale(38.712 38.1015)">
<stop stop-color="white"/>
<stop offset="1" stop-color="white" stop-opacity="0"/>
</radialGradient>
<linearGradient id="paint19_linear_380_25" x1="93.4679" y1="71.5963" x2="105.086" y2="74.6681" gradientUnits="userSpaceOnUse">
<stop stop-color="white"/>
<stop offset="1" stop-color="white" stop-opacity="0"/>
</linearGradient>
<linearGradient id="paint20_linear_380_25" x1="98.5482" y1="66.1374" x2="97.2423" y2="69.1297" gradientUnits="userSpaceOnUse">
<stop stop-color="#EEEEEC"/>
<stop offset="1" stop-color="#EEEEEC" stop-opacity="0"/>
</linearGradient>
<radialGradient id="paint21_radial_380_25" cx="0" cy="0" r="1" gradientUnits="userSpaceOnUse" gradientTransform="translate(110.219 74.7902) scale(6.08694 7.73858)">
<stop stop-color="white"/>
<stop offset="1" stop-color="white" stop-opacity="0"/>
</radialGradient>
<linearGradient id="paint22_linear_380_25" x1="88.5256" y1="67.4833" x2="90.3554" y2="68.9371" gradientUnits="userSpaceOnUse">
<stop stop-color="white"/>
<stop offset="1" stop-color="white" stop-opacity="0"/>
</linearGradient>
<linearGradient id="paint23_linear_380_25" x1="113.61" y1="74.1152" x2="108.179" y2="59.4928" gradientUnits="userSpaceOnUse">
<stop stop-color="#729FCF"/>
<stop offset="1" stop-color="#729FCF" stop-opacity="0"/>
</linearGradient>
</defs>
</svg>
