<svg width="214" height="214" viewBox="0 0 214 214" fill="none" xmlns="http://www.w3.org/2000/svg">
<g filter="url(#filter0_di_380_10)">
<rect x="58" y="24" width="90" height="90" rx="25" fill="#644ED3"/>
<rect x="58" y="24" width="90" height="90" rx="25" fill="url(#paint0_radial_380_10)" fill-opacity="0.7"/>
</g>
<path d="M72.2949 99.4102V93.4688H73.9062V99.4102C73.9062 99.9766 73.7832 100.463 73.5371 100.869C73.291 101.271 72.9551 101.58 72.5293 101.795C72.1035 102.01 71.623 102.117 71.0879 102.117C70.5371 102.117 70.0488 102.025 69.623 101.842C69.1973 101.654 68.8633 101.369 68.6211 100.986C68.3828 100.604 68.2637 100.117 68.2637 99.5273H69.8809C69.8809 99.8477 69.9297 100.105 70.0273 100.301C70.125 100.496 70.2637 100.637 70.4434 100.723C70.627 100.809 70.8418 100.852 71.0879 100.852C71.3262 100.852 71.5352 100.797 71.7148 100.688C71.8984 100.574 72.041 100.41 72.1426 100.195C72.2441 99.9805 72.2949 99.7188 72.2949 99.4102ZM78.7695 94.7637L76.3379 102H74.6328L77.8203 93.4688H78.9102L78.7695 94.7637ZM80.8027 102L78.3594 94.7637L78.2129 93.4688H79.3086L82.5137 102H80.8027ZM80.6914 98.8301V100.102H76.1152V98.8301H80.6914ZM85.9121 100.33L88.0391 93.4688H89.8262L86.8145 102H85.625L85.9121 100.33ZM83.9492 93.4688L86.0645 100.33L86.3691 102H85.168L82.168 93.4688H83.9492ZM93.6523 94.7637L91.2207 102H89.5156L92.7031 93.4688H93.793L93.6523 94.7637ZM95.6855 102L93.2422 94.7637L93.0957 93.4688H94.1914L97.3965 102H95.6855ZM95.5742 98.8301V100.102H90.998V98.8301H95.5742ZM102.74 99.7852C102.74 99.6211 102.715 99.4746 102.664 99.3457C102.617 99.2129 102.529 99.0938 102.4 98.9883C102.275 98.8789 102.098 98.7734 101.867 98.6719C101.641 98.5664 101.348 98.457 100.988 98.3438C100.59 98.2188 100.219 98.0781 99.875 97.9219C99.5312 97.7656 99.2285 97.584 98.9668 97.377C98.709 97.1699 98.5078 96.9316 98.3633 96.6621C98.2188 96.3887 98.1465 96.0723 98.1465 95.7129C98.1465 95.3613 98.2207 95.041 98.3691 94.752C98.5215 94.4629 98.7363 94.2148 99.0137 94.0078C99.291 93.7969 99.6172 93.6348 99.9922 93.5215C100.371 93.4082 100.789 93.3516 101.246 93.3516C101.879 93.3516 102.426 93.4668 102.887 93.6973C103.352 93.9277 103.711 94.2402 103.965 94.6348C104.219 95.0293 104.346 95.4727 104.346 95.9648H102.74C102.74 95.6992 102.684 95.4648 102.57 95.2617C102.461 95.0586 102.293 94.8984 102.066 94.7812C101.844 94.6641 101.562 94.6055 101.223 94.6055C100.895 94.6055 100.621 94.6543 100.402 94.752C100.188 94.8496 100.025 94.9824 99.916 95.1504C99.8105 95.3184 99.7578 95.5059 99.7578 95.7129C99.7578 95.8691 99.7949 96.0098 99.8691 96.1348C99.9434 96.2559 100.055 96.3711 100.203 96.4805C100.352 96.5859 100.535 96.6855 100.754 96.7793C100.977 96.8691 101.234 96.959 101.527 97.0488C101.996 97.1895 102.406 97.3457 102.758 97.5176C103.113 97.6895 103.408 97.8848 103.643 98.1035C103.881 98.3223 104.059 98.5684 104.176 98.8418C104.297 99.1152 104.357 99.4258 104.357 99.7734C104.357 100.141 104.285 100.469 104.141 100.758C103.996 101.047 103.789 101.293 103.52 101.496C103.25 101.699 102.926 101.854 102.547 101.959C102.172 102.064 101.752 102.117 101.287 102.117C100.873 102.117 100.463 102.062 100.057 101.953C99.6543 101.84 99.2891 101.672 98.9609 101.449C98.6328 101.223 98.3711 100.938 98.1758 100.594C97.9805 100.246 97.8828 99.8398 97.8828 99.375H99.5C99.5 99.6445 99.543 99.875 99.6289 100.066C99.7188 100.254 99.8438 100.408 100.004 100.529C100.168 100.646 100.359 100.732 100.578 100.787C100.797 100.842 101.033 100.869 101.287 100.869C101.615 100.869 101.885 100.824 102.096 100.734C102.311 100.641 102.471 100.512 102.576 100.348C102.686 100.184 102.74 99.9961 102.74 99.7852ZM110.592 99.1934H112.203C112.16 99.7637 112.002 100.27 111.729 100.711C111.455 101.148 111.074 101.492 110.586 101.742C110.098 101.992 109.506 102.117 108.811 102.117C108.275 102.117 107.793 102.023 107.363 101.836C106.938 101.645 106.572 101.373 106.268 101.021C105.967 100.666 105.736 100.24 105.576 99.7441C105.416 99.2441 105.336 98.6836 105.336 98.0625V97.4121C105.336 96.791 105.418 96.2305 105.582 95.7305C105.746 95.2305 105.98 94.8047 106.285 94.4531C106.594 94.0977 106.963 93.8242 107.393 93.6328C107.826 93.4414 108.311 93.3457 108.846 93.3457C109.541 93.3457 110.129 93.4746 110.609 93.7324C111.09 93.9863 111.463 94.3359 111.729 94.7812C111.994 95.2266 112.154 95.7383 112.209 96.3164H110.598C110.566 95.957 110.488 95.6523 110.363 95.4023C110.242 95.1523 110.059 94.9629 109.812 94.834C109.57 94.7012 109.248 94.6348 108.846 94.6348C108.533 94.6348 108.258 94.6934 108.02 94.8105C107.785 94.9277 107.59 95.1035 107.434 95.3379C107.277 95.5684 107.16 95.8574 107.082 96.2051C107.004 96.5488 106.965 96.9473 106.965 97.4004V98.0625C106.965 98.4961 107 98.8848 107.07 99.2285C107.141 99.5723 107.25 99.8633 107.398 100.102C107.547 100.34 107.738 100.521 107.973 100.646C108.207 100.771 108.486 100.834 108.811 100.834C109.205 100.834 109.525 100.771 109.771 100.646C110.021 100.521 110.211 100.338 110.34 100.096C110.473 99.8535 110.557 99.5527 110.592 99.1934ZM113.451 93.4688H116.551C117.199 93.4688 117.756 93.5664 118.221 93.7617C118.686 93.957 119.043 94.2461 119.293 94.6289C119.543 95.0117 119.668 95.4824 119.668 96.041C119.668 96.4824 119.59 96.8652 119.434 97.1895C119.277 97.5137 119.057 97.7852 118.771 98.0039C118.49 98.2227 118.158 98.3945 117.775 98.5195L117.271 98.7773H114.535L114.523 97.5059H116.568C116.9 97.5059 117.176 97.4473 117.395 97.3301C117.613 97.2129 117.777 97.0508 117.887 96.8438C118 96.6367 118.057 96.4004 118.057 96.1348C118.057 95.8496 118.002 95.6035 117.893 95.3965C117.783 95.1855 117.617 95.0234 117.395 94.9102C117.172 94.7969 116.891 94.7402 116.551 94.7402H115.062V102H113.451V93.4688ZM118.268 102L116.293 98.1797L117.998 98.1738L119.996 101.918V102H118.268ZM122.797 93.4688V102H121.186V93.4688H122.797ZM127.818 98.8887H125.621V97.623H127.818C128.178 97.623 128.469 97.5645 128.691 97.4473C128.918 97.3262 129.084 97.1621 129.189 96.9551C129.295 96.7441 129.348 96.5039 129.348 96.2344C129.348 95.9727 129.295 95.7285 129.189 95.502C129.084 95.2754 128.918 95.0918 128.691 94.9512C128.469 94.8105 128.178 94.7402 127.818 94.7402H126.148V102H124.537V93.4688H127.818C128.482 93.4688 129.049 93.5879 129.518 93.8262C129.99 94.0605 130.35 94.3867 130.596 94.8047C130.846 95.2188 130.971 95.6914 130.971 96.2227C130.971 96.7734 130.846 97.248 130.596 97.6465C130.35 98.0449 129.99 98.3516 129.518 98.5664C129.049 98.7812 128.482 98.8887 127.818 98.8887ZM135.898 93.4688V102H134.293V93.4688H135.898ZM138.547 93.4688V94.7402H131.674V93.4688H138.547Z" fill="#232337"/>
<path d="M122.756 36.3578H79L83.102 78.9536L100.876 83.7808L118.65 78.9536L122.756 36.3578Z" fill="#E6A329"/>
<path d="M100.876 39.8282V80.1712L115.277 76.2645L118.78 39.8282H100.876Z" fill="#F1BF22"/>
<path d="M112.332 45.0539H90.1905L88.6483 61.0006L88.68 60.9014H107.491L106.878 67.6486L100.876 69.3019L94.786 67.6219L94.4212 63.5382H88.8928L89.6814 71.6982L100.876 74.7414L112.076 71.6982L113.619 55.6811H93.6548L93.911 50.3446H107.762L107.969 53.4022H113.544L112.332 45.0539Z" fill="white"/>
<path d="M100.881 45.0539H90.1905L88.6483 61.0006L88.68 60.9014H100.88V55.6992H94.4334L94.6896 50.3627H100.881V45.0539ZM94.4334 63.5408H88.8922L89.6809 71.6966L100.876 74.7366V69.3094L94.7854 67.6251L94.4334 63.5408Z" fill="#EBEBEB"/>
<defs>
<filter id="filter0_di_380_10" x="0" y="0" width="214" height="214" filterUnits="userSpaceOnUse" color-interpolation-filters="sRGB">
<feFlood flood-opacity="0" result="BackgroundImageFix"/>
<feColorMatrix in="SourceAlpha" type="matrix" values="0 0 0 0 0 0 0 0 0 0 0 0 0 0 0 0 0 0 127 0" result="hardAlpha"/>
<feOffset dx="4" dy="38"/>
<feGaussianBlur stdDeviation="31"/>
<feColorMatrix type="matrix" values="0 0 0 0 0 0 0 0 0 0 0 0 0 0 0 0 0 0 0.5 0"/>
<feBlend mode="normal" in2="BackgroundImageFix" result="effect1_dropShadow_380_10"/>
<feBlend mode="normal" in="SourceGraphic" in2="effect1_dropShadow_380_10" result="shape"/>
<feColorMatrix in="SourceAlpha" type="matrix" values="0 0 0 0 0 0 0 0 0 0 0 0 0 0 0 0 0 0 127 0" result="hardAlpha"/>
<feOffset dx="13" dy="-7"/>
<feGaussianBlur stdDeviation="4"/>
<feComposite in2="hardAlpha" operator="arithmetic" k2="-1" k3="1"/>
<feColorMatrix type="matrix" values="0 0 0 0 0 0 0 0 0 0 0 0 0 0 0 0 0 0 0.25 0"/>
<feBlend mode="normal" in2="shape" result="effect2_innerShadow_380_10"/>
</filter>
<radialGradient id="paint0_radial_380_10" cx="0" cy="0" r="1" gradientUnits="userSpaceOnUse" gradientTransform="translate(86.7705 41.7049) rotate(55.9679) scale(68.5431)">
<stop stop-color="white"/>
<stop offset="0.697917" stop-color="white" stop-opacity="0"/>
<stop offset="1" stop-color="white" stop-opacity="0"/>
</radialGradient>
</defs>
</svg>
