<svg width="214" height="214" viewBox="0 0 214 214" fill="none" xmlns="http://www.w3.org/2000/svg">
<g filter="url(#filter0_di_380_24)">
<rect x="58" y="24" width="90" height="90" rx="25" fill="#644ED3"/>
<rect x="58" y="24" width="90" height="90" rx="25" fill="url(#paint0_radial_380_24)" fill-opacity="0.7"/>
</g>
<path d="M73.0957 99.8887H70.8984V98.623H73.0957C73.4551 98.623 73.7461 98.5645 73.9688 98.4473C74.1953 98.3262 74.3613 98.1621 74.4668 97.9551C74.5723 97.7441 74.625 97.5039 74.625 97.2344C74.625 96.9727 74.5723 96.7285 74.4668 96.502C74.3613 96.2754 74.1953 96.0918 73.9688 95.9512C73.7461 95.8105 73.4551 95.7402 73.0957 95.7402H71.4258V103H69.8145V94.4688H73.0957C73.7598 94.4688 74.3262 94.5879 74.7949 94.8262C75.2676 95.0605 75.627 95.3867 75.873 95.8047C76.123 96.2188 76.248 96.6914 76.248 97.2227C76.248 97.7734 76.123 98.248 75.873 98.6465C75.627 99.0449 75.2676 99.3516 74.7949 99.5664C74.3262 99.7812 73.7598 99.8887 73.0957 99.8887ZM83.1738 97.9902V99.2559H78.6855V97.9902H83.1738ZM79.125 94.4688V103H77.5137V94.4688H79.125ZM84.3691 94.4688V103H82.7578V94.4688H84.3691ZM92.918 98.5176V98.957C92.918 99.6016 92.832 100.182 92.6602 100.697C92.4883 101.209 92.2441 101.645 91.9277 102.004C91.6113 102.363 91.2344 102.639 90.7969 102.83C90.3594 103.021 89.873 103.117 89.3379 103.117C88.8105 103.117 88.3262 103.021 87.8848 102.83C87.4473 102.639 87.0684 102.363 86.748 102.004C86.4277 101.645 86.1797 101.209 86.0039 100.697C85.8281 100.182 85.7402 99.6016 85.7402 98.957V98.5176C85.7402 97.8691 85.8281 97.2891 86.0039 96.7773C86.1797 96.2656 86.4258 95.8301 86.7422 95.4707C87.0586 95.1074 87.4355 94.8301 87.873 94.6387C88.3145 94.4473 88.7988 94.3516 89.3262 94.3516C89.8613 94.3516 90.3477 94.4473 90.7852 94.6387C91.2227 94.8301 91.5996 95.1074 91.916 95.4707C92.2363 95.8301 92.4824 96.2656 92.6543 96.7773C92.8301 97.2891 92.918 97.8691 92.918 98.5176ZM91.2891 98.957V98.5059C91.2891 98.041 91.2461 97.6328 91.1602 97.2812C91.0742 96.9258 90.9473 96.627 90.7793 96.3848C90.6113 96.1426 90.4043 95.9609 90.1582 95.8398C89.9121 95.7148 89.6348 95.6523 89.3262 95.6523C89.0137 95.6523 88.7363 95.7148 88.4941 95.8398C88.2559 95.9609 88.0527 96.1426 87.8848 96.3848C87.7168 96.627 87.5879 96.9258 87.498 97.2812C87.4121 97.6328 87.3691 98.041 87.3691 98.5059V98.957C87.3691 99.418 87.4121 99.8262 87.498 100.182C87.5879 100.537 87.7168 100.838 87.8848 101.084C88.0566 101.326 88.2637 101.51 88.5059 101.635C88.748 101.76 89.0254 101.822 89.3379 101.822C89.6504 101.822 89.9277 101.76 90.1699 101.635C90.4121 101.51 90.6152 101.326 90.7793 101.084C90.9473 100.838 91.0742 100.537 91.1602 100.182C91.2461 99.8262 91.2891 99.418 91.2891 98.957ZM97.6055 94.4688V103H96V94.4688H97.6055ZM100.254 94.4688V95.7402H93.3809V94.4688H100.254ZM108.07 98.5176V98.957C108.07 99.6016 107.984 100.182 107.812 100.697C107.641 101.209 107.396 101.645 107.08 102.004C106.764 102.363 106.387 102.639 105.949 102.83C105.512 103.021 105.025 103.117 104.49 103.117C103.963 103.117 103.479 103.021 103.037 102.83C102.6 102.639 102.221 102.363 101.9 102.004C101.58 101.645 101.332 101.209 101.156 100.697C100.98 100.182 100.893 99.6016 100.893 98.957V98.5176C100.893 97.8691 100.98 97.2891 101.156 96.7773C101.332 96.2656 101.578 95.8301 101.895 95.4707C102.211 95.1074 102.588 94.8301 103.025 94.6387C103.467 94.4473 103.951 94.3516 104.479 94.3516C105.014 94.3516 105.5 94.4473 105.938 94.6387C106.375 94.8301 106.752 95.1074 107.068 95.4707C107.389 95.8301 107.635 96.2656 107.807 96.7773C107.982 97.2891 108.07 97.8691 108.07 98.5176ZM106.441 98.957V98.5059C106.441 98.041 106.398 97.6328 106.312 97.2812C106.227 96.9258 106.1 96.627 105.932 96.3848C105.764 96.1426 105.557 95.9609 105.311 95.8398C105.064 95.7148 104.787 95.6523 104.479 95.6523C104.166 95.6523 103.889 95.7148 103.646 95.8398C103.408 95.9609 103.205 96.1426 103.037 96.3848C102.869 96.627 102.74 96.9258 102.65 97.2812C102.564 97.6328 102.521 98.041 102.521 98.5059V98.957C102.521 99.418 102.564 99.8262 102.65 100.182C102.74 100.537 102.869 100.838 103.037 101.084C103.209 101.326 103.416 101.51 103.658 101.635C103.9 101.76 104.178 101.822 104.49 101.822C104.803 101.822 105.08 101.76 105.322 101.635C105.564 101.51 105.768 101.326 105.932 101.084C106.1 100.838 106.227 100.537 106.312 100.182C106.398 99.8262 106.441 99.418 106.441 98.957ZM113.9 100.785C113.9 100.621 113.875 100.475 113.824 100.346C113.777 100.213 113.689 100.094 113.561 99.9883C113.436 99.8789 113.258 99.7734 113.027 99.6719C112.801 99.5664 112.508 99.457 112.148 99.3438C111.75 99.2188 111.379 99.0781 111.035 98.9219C110.691 98.7656 110.389 98.584 110.127 98.377C109.869 98.1699 109.668 97.9316 109.523 97.6621C109.379 97.3887 109.307 97.0723 109.307 96.7129C109.307 96.3613 109.381 96.041 109.529 95.752C109.682 95.4629 109.896 95.2148 110.174 95.0078C110.451 94.7969 110.777 94.6348 111.152 94.5215C111.531 94.4082 111.949 94.3516 112.406 94.3516C113.039 94.3516 113.586 94.4668 114.047 94.6973C114.512 94.9277 114.871 95.2402 115.125 95.6348C115.379 96.0293 115.506 96.4727 115.506 96.9648H113.9C113.9 96.6992 113.844 96.4648 113.73 96.2617C113.621 96.0586 113.453 95.8984 113.227 95.7812C113.004 95.6641 112.723 95.6055 112.383 95.6055C112.055 95.6055 111.781 95.6543 111.562 95.752C111.348 95.8496 111.186 95.9824 111.076 96.1504C110.971 96.3184 110.918 96.5059 110.918 96.7129C110.918 96.8691 110.955 97.0098 111.029 97.1348C111.104 97.2559 111.215 97.3711 111.363 97.4805C111.512 97.5859 111.695 97.6855 111.914 97.7793C112.137 97.8691 112.395 97.959 112.688 98.0488C113.156 98.1895 113.566 98.3457 113.918 98.5176C114.273 98.6895 114.568 98.8848 114.803 99.1035C115.041 99.3223 115.219 99.5684 115.336 99.8418C115.457 100.115 115.518 100.426 115.518 100.773C115.518 101.141 115.445 101.469 115.301 101.758C115.156 102.047 114.949 102.293 114.68 102.496C114.41 102.699 114.086 102.854 113.707 102.959C113.332 103.064 112.912 103.117 112.447 103.117C112.033 103.117 111.623 103.062 111.217 102.953C110.814 102.84 110.449 102.672 110.121 102.449C109.793 102.223 109.531 101.938 109.336 101.594C109.141 101.246 109.043 100.84 109.043 100.375H110.66C110.66 100.645 110.703 100.875 110.789 101.066C110.879 101.254 111.004 101.408 111.164 101.529C111.328 101.646 111.52 101.732 111.738 101.787C111.957 101.842 112.193 101.869 112.447 101.869C112.775 101.869 113.045 101.824 113.256 101.734C113.471 101.641 113.631 101.512 113.736 101.348C113.846 101.184 113.9 100.996 113.9 100.785ZM122.42 97.9902V99.2559H117.932V97.9902H122.42ZM118.371 94.4688V103H116.76V94.4688H118.371ZM123.615 94.4688V103H122.004V94.4688H123.615ZM132.164 98.5176V98.957C132.164 99.6016 132.078 100.182 131.906 100.697C131.734 101.209 131.49 101.645 131.174 102.004C130.857 102.363 130.48 102.639 130.043 102.83C129.605 103.021 129.119 103.117 128.584 103.117C128.057 103.117 127.572 103.021 127.131 102.83C126.693 102.639 126.314 102.363 125.994 102.004C125.674 101.645 125.426 101.209 125.25 100.697C125.074 100.182 124.986 99.6016 124.986 98.957V98.5176C124.986 97.8691 125.074 97.2891 125.25 96.7773C125.426 96.2656 125.672 95.8301 125.988 95.4707C126.305 95.1074 126.682 94.8301 127.119 94.6387C127.561 94.4473 128.045 94.3516 128.572 94.3516C129.107 94.3516 129.594 94.4473 130.031 94.6387C130.469 94.8301 130.846 95.1074 131.162 95.4707C131.482 95.8301 131.729 96.2656 131.9 96.7773C132.076 97.2891 132.164 97.8691 132.164 98.5176ZM130.535 98.957V98.5059C130.535 98.041 130.492 97.6328 130.406 97.2812C130.32 96.9258 130.193 96.627 130.025 96.3848C129.857 96.1426 129.65 95.9609 129.404 95.8398C129.158 95.7148 128.881 95.6523 128.572 95.6523C128.26 95.6523 127.982 95.7148 127.74 95.8398C127.502 95.9609 127.299 96.1426 127.131 96.3848C126.963 96.627 126.834 96.9258 126.744 97.2812C126.658 97.6328 126.615 98.041 126.615 98.5059V98.957C126.615 99.418 126.658 99.8262 126.744 100.182C126.834 100.537 126.963 100.838 127.131 101.084C127.303 101.326 127.51 101.51 127.752 101.635C127.994 101.76 128.271 101.822 128.584 101.822C128.896 101.822 129.174 101.76 129.416 101.635C129.658 101.51 129.861 101.326 130.025 101.084C130.193 100.838 130.32 100.537 130.406 100.182C130.492 99.8262 130.535 99.418 130.535 98.957ZM136.811 99.8887H134.613V98.623H136.811C137.17 98.623 137.461 98.5645 137.684 98.4473C137.91 98.3262 138.076 98.1621 138.182 97.9551C138.287 97.7441 138.34 97.5039 138.34 97.2344C138.34 96.9727 138.287 96.7285 138.182 96.502C138.076 96.2754 137.91 96.0918 137.684 95.9512C137.461 95.8105 137.17 95.7402 136.811 95.7402H135.141V103H133.529V94.4688H136.811C137.475 94.4688 138.041 94.5879 138.51 94.8262C138.982 95.0605 139.342 95.3867 139.588 95.8047C139.838 96.2188 139.963 96.6914 139.963 97.2227C139.963 97.7734 139.838 98.248 139.588 98.6465C139.342 99.0449 138.982 99.3516 138.51 99.5664C138.041 99.7812 137.475 99.8887 136.811 99.8887Z" fill="#232337"/>
<g clip-path="url(#clip0_380_24)">
<path d="M86.9834 37.225H118.184C123.033 37.225 127 41.1922 127 46.041V76.1841C127 81.0328 123.033 85 118.184 85H86.816C81.9672 85 78 81.0328 78 76.184V46.2083C78 41.2572 82.0324 37.225 86.9834 37.225Z" fill="#00C8FF"/>
<path d="M87.3916 39.2667H117.776C121.743 39.2667 124.958 42.4824 124.958 46.4493V75.7757C124.958 79.7426 121.742 82.9583 117.776 82.9583H87.2242C83.2573 82.9583 80.0416 79.7426 80.0416 75.7757V46.6167C80.0416 42.5334 83.3083 39.2667 87.3916 39.2667Z" fill="#001D26"/>
<path d="M110.649 58.3326C109.039 58.3326 108.557 59.1373 108.557 59.7811C108.557 60.4249 108.959 60.9881 111.071 62.1147C114.209 63.6235 115.256 65.092 115.256 67.2647C115.256 70.4835 112.842 72.2538 109.462 72.2538C108.015 72.318 106.575 72.0134 105.277 71.3686C105.116 71.2881 105.116 71.2077 105.116 71.0468V68.0695C105.116 67.9085 105.197 67.8281 105.358 67.9085C106.548 68.7043 107.95 69.1247 109.381 69.1155C110.991 69.1155 111.634 68.4717 111.634 67.6067C111.634 66.8826 111.131 66.2388 109.12 65.1927C106.303 63.8247 105.096 62.4568 105.096 60.1232C105.096 57.5482 107.108 55.3756 110.628 55.3756C111.861 55.3258 113.091 55.5171 114.25 55.9389C114.401 55.9946 114.478 56.1623 114.422 56.3135C114.419 56.323 114.415 56.3322 114.411 56.3412V59.0772C114.411 59.2382 114.33 59.3186 114.089 59.2382C113.039 58.6634 111.865 58.3526 110.669 58.3329H110.649V58.3326ZM103.205 56.7233C103.205 61.8733 99.5037 64.0459 94.9171 64.0459H93.4083V71.7709C93.4264 71.8861 93.3476 71.9942 93.2323 72.0122C93.2106 72.0157 93.1886 72.0157 93.1669 72.0122H89.9884C89.8731 72.0303 89.765 71.9516 89.747 71.8362C89.7436 71.8145 89.7436 71.7925 89.747 71.7708L89.8275 50.0443C89.8275 49.8833 90.1493 49.8029 90.3304 49.8029C91.6179 49.7224 93.5492 49.7224 95.4804 49.7224C101.013 49.7225 103.205 52.7803 103.205 56.7233ZM99.544 56.7233C99.544 54.1483 97.9347 52.8608 95.2792 52.8608C94.6344 52.8378 93.9887 52.8648 93.3479 52.9413V60.7467H94.9573C97.3111 60.7467 99.544 59.9421 99.544 56.7233Z" fill="white"/>
<path opacity="0.15" d="M110.649 58.3326C109.039 58.3326 108.557 59.1373 108.557 59.7811C108.557 60.4249 108.959 60.9881 111.071 62.1147C114.209 63.6235 115.256 65.092 115.256 67.2647C115.256 70.4835 112.842 72.2538 109.462 72.2538C108.015 72.318 106.575 72.0134 105.277 71.3686C105.116 71.2881 105.116 71.2077 105.116 71.0468V68.0695C105.116 67.9085 105.197 67.8281 105.358 67.9085C106.548 68.7043 107.95 69.1247 109.381 69.1155C110.991 69.1155 111.634 68.4717 111.634 67.6067C111.634 66.8826 111.131 66.2388 109.12 65.1927C106.303 63.8247 105.096 62.4568 105.096 60.1232C105.096 57.5482 107.108 55.3756 110.628 55.3756C111.861 55.3258 113.091 55.5171 114.25 55.9389C114.401 55.9946 114.478 56.1623 114.422 56.3135C114.419 56.323 114.415 56.3322 114.411 56.3412V59.0772C114.411 59.2382 114.33 59.3186 114.089 59.2382C113.039 58.6634 111.865 58.3526 110.669 58.3329H110.649V58.3326ZM103.205 56.7233C103.205 61.8733 99.5037 64.0459 94.9171 64.0459H93.4083V71.7709C93.4264 71.8861 93.3476 71.9942 93.2323 72.0122C93.2106 72.0157 93.1886 72.0157 93.1669 72.0122H89.9884C89.8731 72.0303 89.765 71.9516 89.747 71.8362C89.7436 71.8145 89.7436 71.7925 89.747 71.7708L89.8275 50.0443C89.8275 49.8833 90.1493 49.8029 90.3304 49.8029C91.6179 49.7224 93.5492 49.7224 95.4804 49.7224C101.013 49.7225 103.205 52.7803 103.205 56.7233ZM99.544 56.7233C99.544 54.1483 97.9347 52.8608 95.2792 52.8608C94.6344 52.8378 93.9887 52.8648 93.3479 52.9413V60.7467H94.9573C97.3111 60.7467 99.544 59.9421 99.544 56.7233Z" fill="#00C8FF"/>
</g>
<defs>
<filter id="filter0_di_380_24" x="0" y="0" width="214" height="214" filterUnits="userSpaceOnUse" color-interpolation-filters="sRGB">
<feFlood flood-opacity="0" result="BackgroundImageFix"/>
<feColorMatrix in="SourceAlpha" type="matrix" values="0 0 0 0 0 0 0 0 0 0 0 0 0 0 0 0 0 0 127 0" result="hardAlpha"/>
<feOffset dx="4" dy="38"/>
<feGaussianBlur stdDeviation="31"/>
<feColorMatrix type="matrix" values="0 0 0 0 0 0 0 0 0 0 0 0 0 0 0 0 0 0 0.5 0"/>
<feBlend mode="normal" in2="BackgroundImageFix" result="effect1_dropShadow_380_24"/>
<feBlend mode="normal" in="SourceGraphic" in2="effect1_dropShadow_380_24" result="shape"/>
<feColorMatrix in="SourceAlpha" type="matrix" values="0 0 0 0 0 0 0 0 0 0 0 0 0 0 0 0 0 0 127 0" result="hardAlpha"/>
<feOffset dx="13" dy="-7"/>
<feGaussianBlur stdDeviation="4"/>
<feComposite in2="hardAlpha" operator="arithmetic" k2="-1" k3="1"/>
<feColorMatrix type="matrix" values="0 0 0 0 0 0 0 0 0 0 0 0 0 0 0 0 0 0 0.25 0"/>
<feBlend mode="normal" in2="shape" result="effect2_innerShadow_380_24"/>
</filter>
<radialGradient id="paint0_radial_380_24" cx="0" cy="0" r="1" gradientUnits="userSpaceOnUse" gradientTransform="translate(86.7705 41.7049) rotate(55.9679) scale(68.5431)">
<stop stop-color="white"/>
<stop offset="0.697917" stop-color="white" stop-opacity="0"/>
<stop offset="1" stop-color="white" stop-opacity="0"/>
</radialGradient>
<clipPath id="clip0_380_24">
<rect width="49" height="49" fill="white" transform="translate(78 36)"/>
</clipPath>
</defs>
</svg>
