<svg width="214" height="214" viewBox="0 0 214 214" fill="none" xmlns="http://www.w3.org/2000/svg">
<g filter="url(#filter0_di_380_21)">
<rect x="58" y="24" width="90" height="90" rx="25" fill="#644ED3"/>
<rect x="58" y="24" width="90" height="90" rx="25" fill="url(#paint0_radial_380_21)" fill-opacity="0.7"/>
</g>
<path d="M75.8823 93.7578H79.2402C79.9427 93.7578 80.5457 93.8636 81.0493 94.0752C81.5529 94.2868 81.9401 94.5999 82.2109 95.0146C82.4818 95.4294 82.6172 95.9393 82.6172 96.5444C82.6172 97.0226 82.5326 97.4373 82.3633 97.7886C82.194 98.1398 81.9549 98.4339 81.646 98.6709C81.3413 98.9079 80.9816 99.0941 80.5669 99.2295L80.021 99.5088H77.0566L77.0439 98.1313H79.2593C79.619 98.1313 79.9173 98.0679 80.1543 97.9409C80.3913 97.814 80.569 97.6383 80.6875 97.4141C80.8102 97.1898 80.8716 96.9338 80.8716 96.646C80.8716 96.3371 80.8123 96.0705 80.6938 95.8462C80.5754 95.6177 80.3955 95.4421 80.1543 95.3193C79.9131 95.1966 79.6084 95.1353 79.2402 95.1353H77.6279V103H75.8823V93.7578ZM81.1001 103L78.9609 98.8613L80.8081 98.855L82.9727 102.911V103H81.1001ZM90.2725 101.629V103H85.3594V101.629H90.2725ZM85.8926 93.7578V103H84.147V93.7578H85.8926ZM89.6313 97.5728V98.9121H85.3594V97.5728H89.6313ZM90.2534 93.7578V95.1353H85.3594V93.7578H90.2534ZM95.1602 95.1606L92.5259 103H90.6787L94.1318 93.7578H95.3125L95.1602 95.1606ZM97.3628 103L94.7158 95.1606L94.5571 93.7578H95.7441L99.2163 103H97.3628ZM97.2422 99.5659V100.943H92.2847V99.5659H97.2422ZM105.462 99.9595H107.208C107.161 100.577 106.99 101.125 106.694 101.604C106.398 102.077 105.985 102.45 105.456 102.721C104.927 102.992 104.286 103.127 103.533 103.127C102.953 103.127 102.43 103.025 101.965 102.822C101.504 102.615 101.108 102.321 100.778 101.94C100.452 101.555 100.202 101.094 100.029 100.556C99.8553 100.014 99.7686 99.4072 99.7686 98.7344V98.0298C99.7686 97.3569 99.8574 96.7497 100.035 96.208C100.213 95.6663 100.467 95.2051 100.797 94.8242C101.131 94.4391 101.531 94.1429 101.997 93.9355C102.466 93.7282 102.991 93.6245 103.571 93.6245C104.324 93.6245 104.961 93.7642 105.481 94.0435C106.002 94.3185 106.406 94.6973 106.694 95.1797C106.982 95.6621 107.155 96.2165 107.214 96.8428H105.469C105.435 96.4535 105.35 96.1234 105.215 95.8525C105.084 95.5817 104.885 95.3765 104.618 95.2368C104.356 95.0929 104.007 95.021 103.571 95.021C103.232 95.021 102.934 95.0845 102.676 95.2114C102.422 95.3384 102.21 95.5288 102.041 95.7827C101.872 96.0324 101.745 96.3455 101.66 96.7222C101.576 97.0946 101.533 97.5262 101.533 98.0171V98.7344C101.533 99.2041 101.571 99.6252 101.647 99.9976C101.724 100.37 101.842 100.685 102.003 100.943C102.164 101.201 102.371 101.398 102.625 101.534C102.879 101.669 103.181 101.737 103.533 101.737C103.96 101.737 104.307 101.669 104.574 101.534C104.845 101.398 105.05 101.199 105.189 100.937C105.333 100.675 105.424 100.349 105.462 99.9595ZM112.337 93.7578V103H110.598V93.7578H112.337ZM115.206 93.7578V95.1353H107.76V93.7578H115.206ZM123.058 100.194V93.7578H124.804V100.194C124.804 100.808 124.67 101.335 124.404 101.775C124.137 102.211 123.773 102.545 123.312 102.778C122.851 103.011 122.33 103.127 121.75 103.127C121.154 103.127 120.625 103.028 120.164 102.829C119.702 102.625 119.34 102.317 119.078 101.902C118.82 101.487 118.691 100.96 118.691 100.321H120.443C120.443 100.668 120.496 100.948 120.602 101.159C120.707 101.371 120.858 101.523 121.052 101.616C121.251 101.709 121.484 101.756 121.75 101.756C122.009 101.756 122.235 101.697 122.43 101.578C122.629 101.455 122.783 101.278 122.893 101.045C123.003 100.812 123.058 100.529 123.058 100.194ZM131.374 100.601C131.374 100.423 131.346 100.264 131.291 100.125C131.24 99.9806 131.145 99.8516 131.005 99.7373C130.87 99.6188 130.677 99.5046 130.428 99.3945C130.182 99.2803 129.865 99.1618 129.476 99.0391C129.044 98.9036 128.642 98.7513 128.27 98.582C127.897 98.4128 127.569 98.216 127.286 97.9917C127.006 97.7674 126.788 97.5093 126.632 97.2173C126.475 96.9211 126.397 96.5783 126.397 96.189C126.397 95.8081 126.477 95.4611 126.638 95.1479C126.803 94.8348 127.036 94.5661 127.336 94.3418C127.637 94.1133 127.99 93.9377 128.396 93.8149C128.807 93.6922 129.26 93.6309 129.755 93.6309C130.44 93.6309 131.033 93.7557 131.532 94.0054C132.036 94.255 132.425 94.5936 132.7 95.021C132.975 95.4484 133.113 95.9287 133.113 96.4619H131.374C131.374 96.1742 131.312 95.9202 131.189 95.7002C131.071 95.4801 130.889 95.3066 130.644 95.1797C130.402 95.0527 130.098 94.9893 129.729 94.9893C129.374 94.9893 129.078 95.0422 128.841 95.1479C128.608 95.2537 128.432 95.3976 128.314 95.5796C128.2 95.7616 128.143 95.9647 128.143 96.189C128.143 96.3582 128.183 96.5106 128.263 96.646C128.344 96.7772 128.464 96.902 128.625 97.0205C128.786 97.1348 128.985 97.2427 129.222 97.3442C129.463 97.4416 129.742 97.5389 130.06 97.6362C130.567 97.7886 131.012 97.9578 131.393 98.144C131.778 98.3302 132.097 98.5418 132.351 98.7788C132.609 99.0158 132.802 99.2824 132.929 99.5786C133.06 99.8748 133.125 100.211 133.125 100.588C133.125 100.986 133.047 101.341 132.891 101.654C132.734 101.967 132.51 102.234 132.218 102.454C131.926 102.674 131.575 102.841 131.164 102.956C130.758 103.07 130.303 103.127 129.799 103.127C129.351 103.127 128.906 103.068 128.466 102.949C128.03 102.826 127.635 102.645 127.279 102.403C126.924 102.158 126.64 101.849 126.429 101.477C126.217 101.1 126.111 100.66 126.111 100.156H127.863C127.863 100.448 127.91 100.698 128.003 100.905C128.1 101.108 128.236 101.276 128.409 101.407C128.587 101.534 128.794 101.627 129.031 101.686C129.268 101.745 129.524 101.775 129.799 101.775C130.155 101.775 130.447 101.726 130.675 101.629C130.908 101.527 131.082 101.388 131.196 101.21C131.314 101.032 131.374 100.829 131.374 100.601Z" fill="#232337"/>
<path d="M102.5 64.8641C104.91 64.8641 106.864 62.9102 106.864 60.5C106.864 58.0898 104.91 56.1359 102.5 56.1359C100.09 56.1359 98.1359 58.0898 98.1359 60.5C98.1359 62.9102 100.09 64.8641 102.5 64.8641Z" fill="#23455B"/>
<path d="M119.076 53.3031C118.234 52.9969 117.353 52.6906 116.434 52.4226C116.664 51.5039 116.855 50.5851 117.009 49.7047C117.812 44.6515 116.932 41.0914 114.482 39.7133C113.755 39.2922 112.951 39.1008 112.032 39.1008C109.352 39.1008 105.945 41.0914 102.5 44.4219C99.0547 41.0914 95.6477 39.1008 92.968 39.1008C92.0492 39.1008 91.2453 39.2922 90.518 39.7133C88.068 41.1297 87.1875 44.6898 87.9914 49.7047C88.1445 50.5851 88.3359 51.5039 88.5656 52.4226C87.6469 52.6906 86.7664 52.9586 85.9242 53.3031C81.1391 55.1406 78.5359 57.6672 78.5359 60.5C78.5359 63.3328 81.1773 65.8594 85.9242 67.6969C86.7664 68.0031 87.6469 68.3094 88.5656 68.5773C88.3359 69.4961 88.1445 70.4148 87.9914 71.2953C87.1875 76.3484 88.068 79.9086 90.518 81.2867C91.2453 81.7078 92.0492 81.8992 92.968 81.8992C95.6859 81.8992 99.093 79.9086 102.5 76.5781C105.945 79.9086 109.352 81.8992 112.032 81.8992C112.951 81.8992 113.755 81.7078 114.482 81.2867C116.932 79.8703 117.812 76.3101 117.009 71.2953C116.855 70.4148 116.664 69.4961 116.434 68.5773C117.353 68.3094 118.234 68.0414 119.076 67.6969C123.861 65.8594 126.464 63.3328 126.464 60.5C126.464 57.6672 123.861 55.1406 119.076 53.3031ZM113.41 41.6273C114.98 42.5461 115.516 45.3789 114.865 49.3984C114.75 50.2023 114.559 51.0445 114.329 51.925C112.338 51.4656 110.233 51.1594 108.012 50.968C106.711 49.1305 105.371 47.4844 104.031 45.9914C106.864 43.1969 109.735 41.2828 112.07 41.2828C112.568 41.2828 113.027 41.3976 113.41 41.6273ZM109.123 64.3281C108.434 65.5531 107.63 66.7781 106.787 68.0031C105.371 68.118 103.955 68.1562 102.5 68.1562C101.007 68.1562 99.5906 68.118 98.2125 68.0031C97.3703 66.7781 96.6047 65.5531 95.9156 64.3281C95.1883 63.0648 94.4992 61.7633 93.8867 60.5C94.4992 59.2367 95.1883 57.9351 95.9156 56.6719C96.6047 55.4469 97.4086 54.2219 98.2508 52.9969C99.6672 52.882 101.084 52.8437 102.538 52.8437C104.031 52.8437 105.448 52.882 106.826 52.9969C107.668 54.2219 108.434 55.4469 109.123 56.6719C109.85 57.9351 110.539 59.2367 111.152 60.5C110.501 61.7633 109.85 63.0266 109.123 64.3281ZM112.3 63.0648C112.874 64.4047 113.334 65.7062 113.755 67.0078C112.453 67.3141 111.075 67.5437 109.62 67.7351C110.08 67.0078 110.577 66.2422 110.998 65.4383C111.458 64.6344 111.879 63.8305 112.3 63.0648ZM102.5 73.4391C101.581 72.4437 100.701 71.3719 99.8586 70.2617C100.739 70.3 101.62 70.3383 102.5 70.3383C103.38 70.3383 104.261 70.3 105.141 70.2617C104.299 71.3719 103.419 72.4437 102.5 73.4391ZM95.3797 67.6969C93.925 67.5055 92.5469 67.2758 91.2453 66.9695C91.6664 65.7062 92.1258 64.3664 92.7 63.0266C93.1211 63.7922 93.5422 64.5961 94.0016 65.3617C94.4609 66.2039 94.9203 66.9312 95.3797 67.6969ZM92.7 57.9351C92.1258 56.5953 91.6664 55.2937 91.2453 53.9922C92.5469 53.6859 93.925 53.4562 95.3797 53.2648C94.9203 53.9922 94.4227 54.7578 94.0016 55.5617C93.5422 56.3656 93.1211 57.1695 92.7 57.9351ZM102.5 47.5609C103.419 48.5562 104.299 49.6281 105.141 50.7383C104.261 50.7 103.38 50.6617 102.5 50.6617C101.62 50.6617 100.739 50.7 99.8586 50.7383C100.701 49.6281 101.581 48.5562 102.5 47.5609ZM110.998 55.6L109.62 53.3031C111.075 53.4945 112.453 53.7242 113.755 54.0305C113.334 55.2937 112.874 56.6336 112.3 57.9734C111.879 57.1695 111.458 56.3656 110.998 55.6ZM90.1352 49.3984C89.4844 45.3789 90.0203 42.5461 91.5898 41.6273C91.9727 41.3976 92.432 41.2828 92.9297 41.2828C95.2266 41.2828 98.0977 43.1586 100.969 45.9914C99.6289 47.4461 98.2891 49.1305 96.9875 50.968C94.7672 51.1594 92.6617 51.5039 90.6711 51.925C90.4414 51.0445 90.2883 50.2023 90.1352 49.3984ZM80.6797 60.5C80.6797 58.7008 82.8617 56.7867 86.6898 55.3703C87.4555 55.0641 88.2977 54.7961 89.1398 54.5664C89.7523 56.4805 90.518 58.5094 91.4367 60.5383C90.518 62.5672 89.7141 64.5578 89.1398 66.4719C83.857 64.9406 80.6797 62.6437 80.6797 60.5ZM91.5898 79.3726C90.0203 78.4539 89.4844 75.6211 90.1352 71.6016C90.25 70.7976 90.4414 69.9555 90.6711 69.075C92.6617 69.5344 94.7672 69.8406 96.9875 70.032C98.2891 71.8695 99.6289 73.5156 100.969 75.0086C98.1359 77.8031 95.2648 79.7172 92.9297 79.7172C92.432 79.7172 91.9727 79.6023 91.5898 79.3726ZM114.865 71.6016C115.516 75.6211 114.98 78.4539 113.41 79.3726C113.027 79.6023 112.568 79.7172 112.07 79.7172C109.773 79.7172 106.902 77.8414 104.031 75.0086C105.371 73.5539 106.711 71.8695 108.012 70.032C110.233 69.8406 112.338 69.4961 114.329 69.075C114.559 69.9555 114.712 70.7976 114.865 71.6016ZM118.31 65.6297C117.545 65.9359 116.702 66.2039 115.86 66.4336C115.248 64.5195 114.482 62.4906 113.563 60.4617C114.482 58.4328 115.286 56.4422 115.86 54.5281C121.143 56.0594 124.32 58.3562 124.32 60.5C124.32 62.2992 122.1 64.2133 118.31 65.6297Z" fill="#23455B"/>
<defs>
<filter id="filter0_di_380_21" x="0" y="0" width="214" height="214" filterUnits="userSpaceOnUse" color-interpolation-filters="sRGB">
<feFlood flood-opacity="0" result="BackgroundImageFix"/>
<feColorMatrix in="SourceAlpha" type="matrix" values="0 0 0 0 0 0 0 0 0 0 0 0 0 0 0 0 0 0 127 0" result="hardAlpha"/>
<feOffset dx="4" dy="38"/>
<feGaussianBlur stdDeviation="31"/>
<feColorMatrix type="matrix" values="0 0 0 0 0 0 0 0 0 0 0 0 0 0 0 0 0 0 0.5 0"/>
<feBlend mode="normal" in2="BackgroundImageFix" result="effect1_dropShadow_380_21"/>
<feBlend mode="normal" in="SourceGraphic" in2="effect1_dropShadow_380_21" result="shape"/>
<feColorMatrix in="SourceAlpha" type="matrix" values="0 0 0 0 0 0 0 0 0 0 0 0 0 0 0 0 0 0 127 0" result="hardAlpha"/>
<feOffset dx="13" dy="-7"/>
<feGaussianBlur stdDeviation="4"/>
<feComposite in2="hardAlpha" operator="arithmetic" k2="-1" k3="1"/>
<feColorMatrix type="matrix" values="0 0 0 0 0 0 0 0 0 0 0 0 0 0 0 0 0 0 0.25 0"/>
<feBlend mode="normal" in2="shape" result="effect2_innerShadow_380_21"/>
</filter>
<radialGradient id="paint0_radial_380_21" cx="0" cy="0" r="1" gradientUnits="userSpaceOnUse" gradientTransform="translate(86.7705 41.7049) rotate(55.9679) scale(68.5431)">
<stop stop-color="white"/>
<stop offset="0.697917" stop-color="white" stop-opacity="0"/>
<stop offset="1" stop-color="white" stop-opacity="0"/>
</radialGradient>
</defs>
</svg>
